<svg width="398" height="54" viewBox="0 0 398 54" fill="none" xmlns="http://www.w3.org/2000/svg">
<path d="M150.297 0.0175781C152.22 0.0175781 153.605 0.497777 154.457 1.45117C155.301 2.40455 155.73 3.77161 155.73 5.55176H152.355C152.355 5.22281 152.322 4.89367 152.246 4.54785L152.237 4.53125C152.161 4.18532 152.044 3.87281 151.884 3.58594C151.723 3.29906 151.512 3.06258 151.259 2.87695C151.006 2.6915 150.701 2.59863 150.339 2.59863C149.487 2.5988 148.88 3.07177 148.5 4.0166C148.129 4.96156 147.934 6.53076 147.934 8.71582C147.934 9.76192 147.969 10.7071 148.036 11.5508C148.104 12.403 148.222 13.1207 148.391 13.7197C148.559 14.3187 148.803 14.7748 149.124 15.0869C149.445 15.3991 149.85 15.5674 150.356 15.5674C150.567 15.5673 150.803 15.5081 151.057 15.3984C151.31 15.2887 151.546 15.1115 151.766 14.8838C151.985 14.656 152.17 14.3689 152.313 14.0146C152.457 13.6604 152.533 13.2556 152.533 12.7832V10.9941H150.213V8.4043H155.917V17.8291H153.326V16.2168H153.275C152.853 16.9002 152.339 17.3899 151.748 17.6768C151.157 17.9635 150.44 18.1074 149.605 18.1074C148.525 18.1074 147.648 17.9217 146.973 17.542C146.298 17.1623 145.766 16.5883 145.387 15.8037C145.007 15.0191 144.746 14.0572 144.619 12.9014C144.492 11.7539 144.425 10.4201 144.425 8.90137C144.425 7.38281 144.517 6.14232 144.703 5.03711C144.889 3.93193 145.21 3.00415 145.674 2.26172C146.129 1.51923 146.736 0.961715 147.487 0.582031C148.238 0.210823 149.175 0.0176075 150.297 0.0175781ZM231.364 0.0175781C233.288 0.0175781 234.672 0.497811 235.524 1.45117C236.376 2.40455 236.799 3.77161 236.799 5.55176H233.424C233.424 5.22281 233.389 4.89367 233.313 4.54785L233.297 4.53125C233.221 4.18531 233.103 3.87281 232.942 3.58594C232.782 3.29915 232.571 3.06254 232.318 2.87695C232.065 2.69135 231.761 2.59865 231.398 2.59863C230.555 2.59863 229.939 3.0716 229.567 4.0166C229.196 4.96157 229.002 6.53079 229.002 8.71582C229.002 9.76192 229.036 10.7071 229.103 11.5508C229.171 12.403 229.289 13.1207 229.458 13.7197C229.627 14.3187 229.871 14.7748 230.191 15.0869C230.512 15.3991 230.926 15.5674 231.424 15.5674C231.635 15.5674 231.871 15.5081 232.124 15.3984C232.377 15.2887 232.614 15.1116 232.833 14.8838C233.052 14.656 233.237 14.3689 233.381 14.0146C233.524 13.6603 233.6 13.2556 233.6 12.7832V10.9941H231.28V8.4043H236.984V17.8291H234.393V16.2168H234.343C233.921 16.9002 233.406 17.3899 232.815 17.6768C232.216 17.9635 231.508 18.1074 230.673 18.1074C229.593 18.1074 228.715 17.9217 228.04 17.542C227.365 17.1708 226.834 16.5883 226.454 15.8037C226.074 15.0191 225.813 14.0572 225.686 12.9014C225.56 11.7539 225.492 10.4201 225.492 8.90137C225.492 7.38281 225.585 6.14232 225.77 5.03711C225.956 3.93193 226.277 3.00415 226.741 2.26172C227.197 1.51923 227.804 0.961718 228.555 0.582031C229.305 0.210822 230.242 0.017621 231.364 0.0175781ZM116.141 0.0175781C117.458 0.0175781 118.387 0.22 119.112 0.625C119.837 1.02989 120.377 1.55265 120.74 2.17676C121.094 2.80113 121.322 3.48531 121.415 4.21094C121.508 4.93626 121.551 5.61937 121.551 6.25195H118.023C118.023 4.97828 117.872 4.05869 117.568 3.47656L117.585 3.46777C117.281 2.88571 116.732 2.59863 115.931 2.59863C115.492 2.59872 115.129 2.71704 114.843 2.95312C114.556 3.18933 114.337 3.57762 114.168 4.10059C114.008 4.63215 113.889 5.32457 113.821 6.17676C113.754 7.02879 113.721 8.08327 113.721 9.32324C113.721 10.6479 113.763 11.7118 113.855 12.5303C113.948 13.3485 114.083 13.9816 114.268 14.4287C114.454 14.8757 114.691 15.1792 114.977 15.3311C115.264 15.4829 115.593 15.5674 115.965 15.5674C116.277 15.5674 116.564 15.5169 116.834 15.4072C117.104 15.306 117.332 15.0865 117.534 14.7744C117.737 14.4622 117.888 14.0064 117.998 13.4326C118.108 12.8505 118.167 12.0913 118.167 11.1465H121.694C121.694 12.0914 121.618 12.9942 121.474 13.8379C121.331 14.6816 121.053 15.4242 120.656 16.0654C120.26 16.6982 119.694 17.1958 118.969 17.5586C118.243 17.913 117.297 18.0986 116.141 18.0986C114.817 18.0986 113.771 17.8876 112.986 17.4658C112.202 17.0439 111.603 16.4279 111.189 15.6348C110.776 14.8416 110.505 13.8797 110.379 12.7744C110.252 11.6692 110.193 10.4459 110.193 9.10449C110.193 7.76294 110.252 6.56457 110.379 5.44238C110.505 4.32024 110.767 3.36697 111.189 2.56543C111.603 1.76394 112.202 1.13956 112.986 0.692383C113.771 0.24525 114.825 0.0176335 116.141 0.0175781ZM309.276 0.0175781C310.061 0.0175781 310.779 0.101758 311.445 0.270508C312.111 0.439232 312.676 0.717574 313.157 1.10547C313.638 1.49355 314.01 1.97427 314.28 2.57324C314.55 3.1723 314.684 3.88148 314.684 4.7168V5.20605H311.309C311.309 4.37079 311.166 3.73783 310.871 3.28223C310.576 2.8352 310.086 2.60749 309.403 2.60742C309.015 2.60742 308.685 2.66668 308.424 2.77637C308.162 2.89442 307.951 3.03758 307.8 3.23145C307.648 3.42551 307.538 3.63715 307.479 3.88184C307.42 4.12636 307.394 4.37925 307.394 4.64062C307.394 5.18062 307.513 5.62778 307.741 5.99902C307.969 6.37027 308.458 6.70797 309.209 7.01172L311.926 8.18457C312.592 8.47988 313.141 8.78387 313.562 9.10449C313.984 9.42512 314.322 9.76254 314.575 10.1338C314.828 10.4966 315.006 10.9015 315.099 11.3486C315.2 11.7873 315.242 12.2766 315.242 12.8164C315.242 14.6558 314.71 15.998 313.639 16.8418C312.567 17.6855 311.081 18.0986 309.175 18.0986C307.268 18.0986 305.767 17.6678 304.906 16.7988C304.054 15.9382 303.623 14.6981 303.623 13.0781V12.3691H307.15V12.8848L307.134 12.876C307.134 13.2808 307.167 13.6519 307.234 13.9893C307.302 14.3266 307.42 14.6053 307.605 14.833C307.782 15.0607 308.027 15.2381 308.331 15.373C308.635 15.4996 309.015 15.5674 309.471 15.5674C310.01 15.5673 310.492 15.3898 310.931 15.0439C311.361 14.6896 311.58 14.1497 311.58 13.416C311.58 13.0279 311.529 12.6817 311.42 12.4033C311.31 12.1165 311.141 11.8635 310.896 11.6357C310.652 11.4079 310.331 11.1964 309.926 11.0107C309.529 10.8252 309.031 10.6315 308.449 10.4375C307.665 10.176 306.99 9.88867 306.416 9.58496C305.842 9.2728 305.369 8.91046 304.981 8.49707C304.593 8.08364 304.315 7.60214 304.138 7.05371C303.96 6.50535 303.868 5.87232 303.868 5.15527C303.868 3.42577 304.349 2.13472 305.31 1.29102C306.272 0.447281 307.597 0.0175934 309.276 0.0175781ZM391.145 0.0175781C391.93 0.0175781 392.648 0.101758 393.314 0.270508C393.981 0.439237 394.546 0.717565 395.026 1.10547C395.507 1.49355 395.879 1.97426 396.149 2.57324C396.419 3.1723 396.554 3.88148 396.554 4.7168V5.20605H393.179C393.179 4.37079 393.035 3.73783 392.74 3.28223C392.445 2.8352 391.956 2.6075 391.272 2.60742C390.884 2.60742 390.554 2.66668 390.293 2.77637C390.032 2.89442 389.821 3.03758 389.669 3.23145C389.517 3.42551 389.408 3.63715 389.349 3.88184C389.29 4.12637 389.264 4.37924 389.264 4.64062C389.264 5.18062 389.382 5.62777 389.61 5.99902C389.838 6.37027 390.327 6.70797 391.078 7.01172L393.795 8.18457C394.461 8.47988 395.01 8.78387 395.432 9.10449C395.853 9.42511 396.191 9.76254 396.444 10.1338C396.697 10.4966 396.875 10.9015 396.968 11.3486C397.069 11.7873 397.111 12.2766 397.111 12.8164C397.111 14.6558 396.579 15.998 395.508 16.8418C394.436 17.6855 392.951 18.0986 391.044 18.0986C389.137 18.0986 387.636 17.6678 386.775 16.7988C385.923 15.9382 385.492 14.6981 385.492 13.0781V12.3691H389.019V12.8848L389.002 12.876C389.002 13.2808 389.036 13.6519 389.103 13.9893C389.171 14.3266 389.289 14.6053 389.474 14.833C389.652 15.0607 389.897 15.2381 390.2 15.373C390.504 15.4996 390.884 15.5674 391.34 15.5674C391.88 15.5673 392.36 15.3898 392.799 15.0439C393.229 14.6896 393.449 14.15 393.449 13.416C393.449 13.0279 393.399 12.6817 393.289 12.4033C393.179 12.1165 393.01 11.8635 392.766 11.6357C392.521 11.4079 392.2 11.1964 391.795 11.0107C391.398 10.8252 390.9 10.6315 390.318 10.4375C389.534 10.176 388.859 9.88868 388.285 9.58496C387.711 9.2728 387.239 8.91046 386.85 8.49707C386.462 8.08363 386.184 7.60215 386.007 7.05371C385.83 6.50535 385.737 5.87232 385.737 5.15527C385.737 3.42575 386.218 2.13472 387.18 1.29102C388.141 0.44727 389.466 0.017583 391.145 0.0175781ZM17.7948 12.5381C17.7948 12.9767 17.8198 13.3818 17.8788 13.7529C17.9378 14.1157 18.0388 14.437 18.1991 14.707C18.3594 14.9769 18.5704 15.188 18.8319 15.3398C19.1019 15.4917 19.4397 15.5761 19.8446 15.5762C20.2494 15.5762 20.6124 15.5 20.8739 15.3398C21.1354 15.188 21.347 14.977 21.4989 14.707C21.6508 14.437 21.7602 14.1157 21.8192 13.7529C21.8782 13.3818 21.9032 12.9851 21.9032 12.5381V0.354492H25.4305V12.5381C25.4305 13.6434 25.2789 14.5634 24.9667 15.2891C24.6545 16.0146 24.2407 16.5879 23.7177 17.0098C23.1945 17.4316 22.6036 17.7192 21.9286 17.8711C21.2621 18.0145 20.5701 18.0898 19.8446 18.0898C19.1192 18.0898 18.4358 18.023 17.7694 17.8965C17.1028 17.7699 16.5035 17.4991 15.9803 17.1025C15.4573 16.706 15.0435 16.1324 14.7313 15.3984C14.4192 14.6644 14.2675 13.7108 14.2675 12.5381V0.354492H17.7948V12.5381ZM320.473 12.5381H320.465C320.465 12.9767 320.49 13.3818 320.549 13.7529C320.608 14.1157 320.709 14.437 320.869 14.707C321.021 14.9769 321.232 15.188 321.502 15.3398C321.772 15.4917 322.11 15.5761 322.515 15.5762C322.919 15.5762 323.282 15.5 323.544 15.3398C323.805 15.188 324.017 14.977 324.169 14.707C324.321 14.437 324.43 14.1157 324.489 13.7529C324.548 13.3818 324.573 12.9851 324.573 12.5381V0.354492H328.1V12.5381C328.1 13.6434 327.949 14.5634 327.637 15.2891C327.324 16.0146 326.911 16.5879 326.388 17.0098C325.864 17.4316 325.273 17.7192 324.599 17.8711C323.932 18.0145 323.24 18.0898 322.523 18.0898C321.806 18.0898 321.114 18.023 320.447 17.8965C319.781 17.7699 319.182 17.499 318.659 17.1025C318.136 16.706 317.722 16.1325 317.41 15.3984C317.098 14.6644 316.946 13.7108 316.946 12.5381V0.354492H320.473V12.5381ZM169.678 0.363281C170.429 0.363281 171.078 0.455991 171.627 0.641602C172.175 0.827184 172.622 1.08839 172.985 1.42578C173.34 1.76328 173.609 2.15207 173.778 2.59082C173.947 3.02947 174.032 3.5017 174.032 4.00781C174.032 4.88531 173.787 5.67859 173.289 6.37891C172.791 7.07913 172.032 7.7963 171.003 8.53027L173.618 12.083C173.795 11.7118 173.947 11.2641 174.057 10.7578L174.049 10.75C174.167 10.2437 174.218 9.80449 174.218 9.4248H177.255C177.255 10.3698 177.086 11.2813 176.757 12.1504C176.419 13.0193 175.998 13.8377 175.474 14.5801L177.778 17.8115H174.032L173.053 16.4697C172.614 16.9928 172.024 17.3895 171.281 17.668C170.539 17.9464 169.729 18.082 168.843 18.082C167.746 18.082 166.852 17.9212 166.151 17.6006C165.451 17.28 164.903 16.8668 164.515 16.3691C164.126 15.863 163.856 15.3145 163.704 14.7324C163.561 14.1418 163.485 13.6095 163.485 13.1201C163.485 12.091 163.797 11.163 164.43 10.3447C165.054 9.51785 165.915 8.76645 167.012 8.08301L166.395 7.18066C166.151 6.8263 165.949 6.50499 165.797 6.22656C165.645 5.94826 165.527 5.68697 165.442 5.44238C165.358 5.1977 165.307 4.96121 165.273 4.7334C165.24 4.50565 165.223 4.26902 165.223 4.02441C165.223 3.45103 165.332 2.94501 165.552 2.49805C165.771 2.05096 166.075 1.66274 166.472 1.35059C166.86 1.02997 167.332 0.784961 167.881 0.616211C168.429 0.447487 169.028 0.363307 169.678 0.363281ZM275.839 0C277.163 2.13172e-05 278.209 0.227748 278.994 0.674805C279.779 1.12189 280.377 1.74656 280.791 2.54785C281.204 3.34941 281.475 4.30359 281.601 5.42578C281.72 6.53933 281.787 7.76252 281.787 9.08691C281.787 10.4116 281.728 11.6525 281.601 12.7578C281.475 13.8715 281.213 14.8251 280.791 15.6182C280.369 16.4111 279.779 17.0274 278.994 17.4492C278.209 17.871 277.163 18.082 275.839 18.082C274.514 18.082 273.467 17.8711 272.682 17.4492C271.898 17.0274 271.299 16.4112 270.886 15.6182C270.472 14.8251 270.203 13.8631 270.076 12.7578C269.958 11.6525 269.891 10.4285 269.891 9.08691C269.891 7.74564 269.95 6.54777 270.076 5.42578C270.203 4.31203 270.464 3.34941 270.886 2.54785C271.299 1.7465 271.898 1.12193 272.682 0.674805C273.467 0.227617 274.514 0 275.839 0ZM6.73328 0.354492C8.20122 0.35455 9.33971 0.72632 10.1581 1.46875C10.9765 2.21125 11.3817 3.3416 11.3817 4.86035C11.3817 6.03295 11.1461 6.99488 10.6737 7.7373C10.2012 8.4798 9.46621 8.96094 8.47058 9.17188V9.22266C9.34808 9.35766 9.9982 9.63582 10.4032 10.083C10.8082 10.5217 11.0617 11.2303 11.163 12.209C11.1967 12.538 11.2213 12.8928 11.2382 13.2725C11.255 13.6521 11.2721 14.0823 11.2889 14.5547C11.3227 15.4825 11.3735 16.1913 11.4325 16.6807C11.5337 17.17 11.7447 17.5084 12.0653 17.6855V17.8281H8.25183C8.07473 17.5835 7.95674 17.3049 7.90613 16.9844C7.85556 16.664 7.82144 16.3353 7.80457 15.998L7.703 12.6484C7.66925 11.965 7.50054 11.4243 7.18835 11.0361C6.87614 10.6482 6.35292 10.4453 5.61902 10.4453H3.73718V17.8369H0.227417V0.354492H6.73328ZM34.3319 0.354492C35.8 0.354492 36.9393 0.72625 37.7577 1.46875C38.5759 2.21125 38.9813 3.34179 38.9813 4.86035C38.9813 6.03304 38.7448 6.99486 38.2723 7.7373C37.7999 8.47979 37.0658 8.96093 36.0702 9.17188V9.22266C36.9475 9.35765 37.5968 9.63595 38.0018 10.083C38.4068 10.5217 38.6603 11.2303 38.7616 12.209C38.7953 12.538 38.8209 12.8928 38.8378 13.2725C38.8546 13.6521 38.8717 14.0823 38.8885 14.5547C38.9223 15.4826 38.9731 16.1913 39.0321 16.6807C39.1334 17.17 39.3443 17.5084 39.6649 17.6855V17.8281H35.8505C35.6734 17.5835 35.5554 17.3048 35.5048 16.9844C35.4542 16.664 35.4201 16.3353 35.4032 15.998L35.3026 12.6484C35.2689 11.965 35.1001 11.4243 34.788 11.0361C34.4758 10.6481 33.9525 10.4454 33.2186 10.4453H31.3368V17.8369H27.8094V0.354492H34.3319ZM198.129 0.354492C199.597 0.354492 200.736 0.72625 201.555 1.46875C202.373 2.21125 202.778 3.34165 202.778 4.86035C202.778 6.03307 202.542 6.99485 202.069 7.7373C201.597 8.47973 200.863 8.96095 199.867 9.17188V9.22266C200.745 9.35766 201.395 9.63582 201.8 10.083C202.205 10.5217 202.457 11.2304 202.558 12.209C202.592 12.538 202.618 12.8928 202.635 13.2725C202.652 13.6521 202.669 14.0823 202.685 14.5547C202.719 15.4826 202.77 16.1913 202.829 16.6807C202.93 17.17 203.141 17.5084 203.462 17.6855V17.8281H199.648C199.471 17.5835 199.352 17.3049 199.302 16.9844C199.251 16.664 199.218 16.3352 199.201 15.998L199.099 12.6484C199.066 11.965 198.897 11.4243 198.585 11.0361C198.273 10.6481 197.749 10.4453 197.016 10.4453H195.134V17.8369H191.607V0.354492H198.129ZM211.899 0.354492C213.367 0.354506 214.507 0.726264 215.325 1.46875C216.143 2.21126 216.549 3.34183 216.549 4.86035C216.549 6.03301 216.312 6.99486 215.84 7.7373C215.367 8.47976 214.633 8.96092 213.638 9.17188V9.22266C214.515 9.35766 215.164 9.63594 215.569 10.083C215.974 10.5217 216.228 11.2303 216.329 12.209C216.363 12.538 216.388 12.8928 216.405 13.2725C216.422 13.6521 216.439 14.0823 216.456 14.5547C216.49 15.4825 216.539 16.1913 216.599 16.6807C216.7 17.17 216.911 17.5083 217.231 17.6855V17.8281H213.418C213.241 17.5835 213.123 17.3048 213.072 16.9844C213.022 16.664 212.987 16.3353 212.971 15.998L212.87 12.6484C212.836 11.965 212.667 11.4243 212.354 11.0361C212.042 10.6483 211.519 10.4453 210.785 10.4453H208.904V17.8369H205.377V0.354492H211.899ZM53.9833 17.8281H50.3124L49.5028 14.1328H44.8534L44.0438 17.8281H40.3729L45.0057 0.354492H49.3593L53.9833 17.8281ZM104.683 12.3193H104.734V0.354492H107.966V17.8281H103.95L99.6464 5.59375H99.5956V17.8281H96.3641V0.354492H100.423L104.683 12.3193ZM127.583 17.8281H124.057V0.354492H127.583V17.8281ZM138.695 12.3193H138.746V0.354492H141.977V17.8281H137.962L133.658 5.59375H133.607V17.8281H130.376V0.354492H134.434L138.695 12.3193ZM188.831 17.8281H185.305V0.354492H188.831V17.8281ZM222.868 17.8281H219.341V0.354492H222.868V17.8281ZM251.808 17.8281H248.139L247.328 14.1328H242.68L241.869 17.8281H238.199L242.823 0.354492H247.184L251.808 17.8281ZM267.477 17.8281H263.95V0.354492H267.477V17.8281ZM292.35 12.3193H292.401V0.354492H295.633V17.8281H291.617L287.313 5.59375H287.263V17.8281H284.031V0.354492H288.09L292.35 12.3193ZM336.665 0.354492C337.559 0.354545 338.318 0.506849 338.926 0.810547C339.533 1.11429 340.031 1.51066 340.402 2C340.773 2.48928 341.043 3.04606 341.212 3.67871C341.372 4.30305 341.457 4.94445 341.457 5.60254C341.457 6.49691 341.322 7.28168 341.052 7.94824C340.782 8.61476 340.41 9.16311 339.93 9.58496C339.449 10.0068 338.867 10.3281 338.183 10.5391C337.5 10.75 336.74 10.8594 335.905 10.8594H334.023V17.8281H330.497V0.354492H336.665ZM349.531 0.354492C350.426 0.354492 351.185 0.506797 351.793 0.810547C352.4 1.11429 352.898 1.51067 353.269 2C353.641 2.48928 353.91 3.04606 354.079 3.67871C354.239 4.30305 354.324 4.94445 354.324 5.60254C354.324 6.49691 354.189 7.28168 353.919 7.94824C353.649 8.61477 353.278 9.1631 352.797 9.58496C352.316 10.0068 351.734 10.3281 351.051 10.5391C350.367 10.75 349.608 10.8594 348.772 10.8594H346.891V17.8281H343.364V0.354492H349.531ZM371.435 17.8281H367.909V0.354492H371.435V17.8281ZM58.9022 14.9346H65.1454V17.8203H55.3837V0.354492H58.9022V14.9346ZM82.6874 3.24023H76.4432V7.34961H82.3163V10.2344H76.4432V17.8203H72.9169V0.354492H82.6874V3.24023ZM94.1874 3.24023H87.9442V7.34961H93.8163V10.2344H87.9442V14.9346H94.4325V17.8203H84.4257V0.354492H94.1874V3.24023ZM262.086 3.24023H258.271V17.8203H254.745V3.24023H250.932V0.354492H262.086V3.24023ZM359.766 14.9346H366.01V17.8203H356.248V0.354492H359.766V14.9346ZM383.982 3.24023H377.747V7.34961H383.619V10.2344H377.747V14.9346H384.226V17.8203H374.22V0.354492H383.982V3.24023ZM275.839 2.59863C275.324 2.59863 274.893 2.71688 274.581 2.95312C274.26 3.18938 274.016 3.56975 273.848 4.09277C273.679 4.61586 273.561 5.28229 273.502 6.10059C273.443 6.91891 273.417 7.91433 273.417 9.08691C273.417 10.2597 273.443 11.2646 273.502 12.083C273.561 12.9097 273.67 13.5762 273.848 14.0908C274.016 14.6053 274.26 14.9766 274.581 15.2129C274.902 15.4491 275.324 15.5674 275.839 15.5674C276.353 15.5674 276.783 15.4491 277.096 15.2129C277.408 14.9766 277.661 14.5971 277.83 14.0908C277.999 13.5762 278.117 12.9097 278.176 12.083C278.235 11.2561 278.26 10.2597 278.26 9.08691C278.26 7.91434 278.235 6.9189 278.176 6.10059C278.117 5.28235 278.007 4.61584 277.83 4.09277C277.661 3.56965 277.416 3.18937 277.096 2.95312C276.775 2.717 276.353 2.59866 275.839 2.59863ZM168.641 10.167C167.957 10.6901 167.484 11.1801 167.231 11.6357V11.627C166.978 12.0825 166.852 12.5802 166.851 13.1201C166.851 13.3817 166.902 13.6522 167.012 13.9307C167.113 14.209 167.273 14.4536 167.475 14.6729C167.678 14.8922 167.94 15.0695 168.244 15.2129C168.548 15.3562 168.902 15.4238 169.299 15.4238C170.227 15.4237 170.986 15.0609 171.576 14.3271L168.641 10.167ZM45.4696 11.2393H48.8954L47.2079 3.38379H47.1571L45.4696 11.2393ZM243.295 11.2393H246.721L245.033 3.38379H244.982L243.295 11.2393ZM334.023 8.25195H335.593C336.293 8.25195 336.859 8.04102 337.289 7.61914C337.719 7.19731 337.938 6.53086 337.938 5.63672C337.938 4.74234 337.753 4.08355 337.373 3.62793C337.002 3.1726 336.369 2.94539 335.492 2.94531H334.023V8.25195ZM346.891 8.25195H348.46C349.16 8.25195 349.726 8.04102 350.156 7.61914C350.586 7.19731 350.805 6.53085 350.806 5.63672C350.806 4.74234 350.62 4.08355 350.24 3.62793C349.869 3.1726 349.236 2.94539 348.359 2.94531H346.891V8.25195ZM3.74597 7.98242H5.21375C6.0575 7.98242 6.71613 7.77938 7.17175 7.38281C7.6273 6.98624 7.85535 6.31113 7.85535 5.36621C7.85529 3.75477 7.03646 2.94531 5.40808 2.94531H3.74597V7.98242ZM31.3446 7.98242H32.8134C33.657 7.9824 34.3148 7.77929 34.7704 7.38281C35.226 6.98625 35.454 6.31121 35.454 5.36621C35.4539 3.75491 34.6358 2.94545 33.0077 2.94531H31.3446V7.98242ZM195.142 7.98242H196.61C197.454 7.98242 198.113 7.77938 198.568 7.38281C199.024 6.98623 199.252 6.31107 199.252 5.36621C199.252 3.75477 198.433 2.94531 196.805 2.94531H195.142V7.98242ZM208.912 7.98242H210.381C211.224 7.98238 211.882 7.77931 212.338 7.38281C212.793 6.98625 213.021 6.31121 213.021 5.36621C213.021 3.75477 212.202 2.94531 210.574 2.94531H208.912V7.98242ZM169.585 2.49805C169.163 2.4981 168.809 2.62429 168.522 2.86035C168.235 3.10502 168.092 3.45947 168.092 3.91504C168.092 4.40441 168.387 5.03758 168.97 5.82227L168.986 5.83008L169.399 6.4209L170.032 5.88086C170.42 5.55192 170.707 5.23164 170.876 4.91113C171.045 4.59052 171.129 4.27799 171.129 3.96582C171.129 3.49332 170.986 3.13008 170.699 2.87695C170.412 2.62386 170.04 2.49805 169.585 2.49805Z" fill="#2A231A"/>
<path d="M56.9189 35.2013C57.0033 35.2013 57.0628 35.2011 57.1641 35.2179C57.5098 35.277 57.8303 35.3026 58.0918 35.4796C58.2774 35.5977 58.3789 35.8426 58.3789 36.0451C58.3789 36.3319 58.2604 36.5935 58.1592 36.7707C58.0158 37.0322 57.7715 37.2601 57.6533 37.5216C56.9615 39.0234 56.7591 40.0107 56.2529 41.5714C56.0926 42.0777 55.9912 42.483 55.9912 42.7277C55.9912 42.7866 56.0078 42.8116 56.0498 42.8117C56.092 42.8117 56.1684 42.7955 56.2949 42.7111L56.2861 42.7365C56.4043 42.6521 56.8772 42.4325 57.5859 41.6056C57.8306 41.3188 58.0078 41.1838 58.3115 40.8127C58.9359 40.0449 59.9147 39.4372 60.8428 36.923C60.9018 36.7374 61.1043 36.2306 61.5684 36.2306C61.8298 36.2307 61.9901 36.4168 62.3779 36.4337C62.6648 36.4506 62.8847 36.4757 63.0703 36.7794C63.1714 36.9397 63.2139 37.0833 63.2139 37.2013C63.2138 37.4882 63.0951 37.826 62.8252 38.214L62.3359 38.922C61.8297 39.673 61.5427 40.3402 61.1377 41.4709L60.041 44.466C59.8976 44.8708 59.8809 44.9557 59.8809 44.9894C59.881 45.0232 59.8983 45.0732 59.999 45.09C60.1593 45.1322 60.4462 45.2506 60.4463 45.5373C60.4463 45.7227 60.3452 45.9001 60.2861 45.9845C58.953 47.7648 58.3032 49.6889 57.915 51.5705C57.7547 52.3805 57.6105 53.815 56.5391 53.9416C56.3535 53.9585 56.0923 54.0001 55.8311 54.0002C55.6286 54.0002 55.4085 53.958 55.1807 53.8146C54.894 53.629 54.8184 53.308 54.8184 52.9875C54.8184 52.3969 55.1217 51.6881 55.2061 51.5109C55.6701 50.4562 56.2615 49.2411 56.9111 48.1105C57.0294 47.5026 57.6618 45.5199 58.168 43.9171C58.2269 43.7152 58.2693 43.5973 58.2695 43.5548C58.2695 43.4958 58.2521 43.4699 58.21 43.4699C58.1508 43.47 57.9901 43.5886 57.6865 43.8332C57.1973 44.2211 56.5903 44.5586 56.3877 44.5587C55.4174 44.5587 54.6498 44.2122 54.1436 43.63C54.0002 43.4698 53.958 43.1414 53.958 42.922C53.958 41.7661 54.6244 39.7406 54.751 39.3947C55.1559 38.2643 55.7039 37.1084 56.0498 35.8683C56.1342 35.5815 56.4718 35.2014 56.9189 35.2013ZM144.441 35.4123C145.353 35.4123 146.306 36.0034 146.584 36.4084C146.786 36.6951 146.787 36.9563 146.787 37.2599C146.787 37.5046 146.787 37.7664 146.669 37.9689C145.614 39.7914 144.93 41.1498 144.525 41.9767C144.382 42.2634 144.34 42.3648 144.34 42.3986C144.34 42.4155 144.341 42.4406 144.357 42.4406C144.399 42.4405 144.442 42.4225 144.762 42.1535C145.589 41.4617 146.323 40.9815 147.091 40.5343C147.437 40.3319 147.479 40.3146 147.715 40.3146C148.364 40.3146 148.685 40.736 148.686 41.006C148.686 41.1662 148.643 41.3098 148.5 41.4279C144.813 44.1616 142.914 45.9427 141.901 48.3136C141.21 49.9167 140.467 51.756 140.239 52.1779C139.817 52.9708 139.446 53.1056 138.535 53.1056C138.029 53.1056 137.379 52.8021 137.235 52.338C137.193 52.22 137.193 52.1187 137.193 51.9923C137.193 51.0643 137.885 50.0852 138.526 49.174L140.29 46.6847C140.813 45.9591 141.159 45.2253 141.91 43.6476C142.07 43.3017 142.096 43.183 142.096 43.1408C142.096 43.124 142.096 43.099 142.079 43.0988C142.037 43.0988 141.935 43.1834 141.732 43.3859C141.387 43.7309 140.606 44.2512 139.899 44.2541C139.683 44.2535 139.459 44.2358 139.219 44.1115C138.73 43.8669 137.861 43.2008 137.784 42.88C137.742 42.7199 137.725 42.5761 137.725 42.4328C137.725 41.9096 138.071 40.9726 138.493 40.2638C138.881 39.6395 139.447 38.8888 140.273 37.9777C140.78 37.4293 142.037 36.1382 143.37 35.632C143.632 35.5308 143.961 35.4123 144.441 35.4123ZM281.593 31.7248C281.913 31.7248 282.302 31.81 282.589 31.9113C282.85 32.0125 282.951 32.1304 282.951 32.2316C282.951 32.2909 282.909 32.5354 282.867 32.7209C282.547 34.1805 281.534 35.7162 281.062 36.7287C280.943 36.9902 280.859 37.1761 280.758 37.4377C280.716 37.5385 280.698 37.6224 280.698 37.6564H280.707C280.707 37.6564 280.724 37.6992 280.749 37.6994C280.791 37.6994 280.867 37.6817 280.951 37.6564C281.803 37.4539 282.774 37.1083 283.364 36.7287C283.482 36.6443 283.567 36.6271 283.728 36.6271C283.854 36.6271 284.01 36.6528 284.169 36.6955C284.302 36.4034 284.437 36.1076 284.58 35.8087C284.799 35.345 285.272 35.2014 285.735 35.2013C285.98 35.2013 286.343 35.2186 286.664 35.4464C286.782 35.531 286.883 35.75 286.883 35.9523C286.883 36.7623 285.786 37.9355 285.584 38.3996C285.263 39.1504 284.69 40.5082 284.411 41.2169C284.327 41.4194 283.947 42.4919 283.947 43.1837C283.947 43.4282 283.947 43.588 284.107 43.588C284.293 43.5879 284.614 43.4026 285.264 42.9386C285.508 42.7783 285.829 42.4748 286.335 42.4748C286.458 42.4748 286.566 42.4833 286.662 42.4992C286.646 42.3388 286.639 42.1787 286.639 42.0187C286.639 40.3819 287.491 38.8631 288.377 37.5216C288.52 37.3024 288.723 37.1332 288.866 36.9308C289.474 36.0618 290.343 35.0246 291.355 35.0246C291.777 35.0246 292.309 35.1427 292.73 35.5138C292.916 35.6741 292.975 35.7588 293.034 35.9191C293.338 36.7119 293.456 36.8468 293.929 36.8468V36.8634C294.232 36.8634 294.68 36.8048 295.431 36.8048C295.963 36.8049 296.392 36.9173 296.668 37.0773C296.865 36.7385 297.083 36.3868 297.337 36.0031C297.438 35.8596 297.523 35.6573 297.658 35.5392C297.819 35.3958 298.181 35.3195 298.569 35.3195C299.016 35.3195 299.438 35.4376 299.599 35.7834C299.683 35.9435 299.7 36.1039 299.7 36.2472C299.7 36.5678 299.438 36.9142 299.177 37.2179C298.73 37.7072 298.35 38.1882 297.802 39.2257C297.557 39.6729 297.092 40.6856 296.468 42.3224C296.248 42.913 296.224 42.9726 296.224 43.0148C296.224 43.0316 296.224 43.0566 296.24 43.0568C296.257 43.0568 296.325 43.0396 296.46 42.8371C297.287 41.6391 298.165 40.568 299.093 39.5978L299.117 39.5802C300.349 38.3067 300.577 38.0619 300.737 37.6994C301.024 37.0497 301.143 36.7707 301.564 36.7707C301.986 36.7707 302.113 36.9308 302.332 36.9562C302.897 37.0153 303.041 37.5046 303.041 37.7072C303.041 37.7915 302.923 38.0956 302.839 38.2306C302.13 39.4034 301.767 40.1715 301.463 41.1671C301.345 41.5556 301.219 42.5426 301.219 42.9474C301.219 43.091 301.261 43.3692 301.362 43.757C301.404 43.9173 301.506 44.0605 301.986 44.381C302.231 44.5413 302.35 44.7866 302.35 45.006C302.35 45.2675 302.13 45.5119 301.683 45.5119C301.278 45.5119 300.628 45.4278 300.35 45.1496C300.071 44.8712 299.7 44.6855 299.522 44.424C299.261 44.0359 299.177 43.5121 299.177 43.048C299.177 42.9047 299.193 42.602 299.193 42.5255C299.193 42.4665 299.177 42.4406 299.151 42.4406C299.109 42.4406 299.067 42.4835 298.864 42.7619L297.81 44.2209C297.464 44.7101 297.261 44.7104 297 45.0138C296.857 45.1741 296.595 45.3009 296.249 45.3009C296.047 45.3009 295.743 45.2167 295.6 45.1408C295.152 44.8961 294.587 44.5165 294.367 44.2296C294.283 44.1284 294.182 43.8666 294.182 43.6388C294.182 43.1918 294.368 42.77 294.401 42.382C294.46 41.8168 295.093 40.4163 295.396 39.6906C295.639 39.1156 295.861 38.6173 296.099 38.1369L296.097 38.1378C295.591 38.2222 295.168 38.3992 294.62 38.4836C294.333 38.5257 294.072 38.5255 293.869 38.5255C293.785 38.5257 293.726 38.5852 293.684 38.7453C293.16 40.8882 292.469 42.5927 291.212 43.9679C290.723 44.4911 290.098 45.2003 289.229 45.2003C289.009 45.2003 288.765 45.1404 288.562 45.0392C287.782 44.657 287.149 44.1849 286.952 43.7033L286.141 44.4572C285.795 44.7609 284.942 45.4279 284.099 45.4279C283.635 45.4278 283.17 45.2676 282.74 44.7785C282.42 44.4157 281.989 43.8243 281.989 42.8371C281.989 42.2719 282.133 41.7234 282.311 41.2003C282.454 40.8124 282.53 40.492 282.656 40.2052C282.887 39.6661 283.111 39.1326 283.338 38.5978C282.423 38.9405 281.286 39.1442 280.369 39.4796C280.023 39.5978 279.905 39.8845 279.72 40.5929C279.635 40.9389 279.517 41.0572 279.475 41.3019C279.373 41.9518 278.682 43.6137 278.563 44.6007C278.521 44.9467 278.319 45.5968 277.61 45.5968C277.264 45.5968 276.859 45.4534 276.614 45.2931C276.37 45.1328 276.311 44.8454 276.311 44.6007C276.311 44.3984 276.353 44.213 276.396 44.0949C276.885 42.6605 277.247 41.0402 277.771 39.6818C277.855 39.4793 277.889 39.3776 277.889 39.3185C277.889 39.2598 277.872 39.2341 277.729 39.1584C277.163 38.8377 277.078 38.3905 276.572 37.9855C276.519 37.9396 276.476 37.8964 276.445 37.8527C275.613 38.9695 274.724 40.319 274.37 41.6896C274.252 42.179 274.108 42.7872 274.108 43.3947C274.108 43.9007 274.193 44.4066 274.497 44.8537C274.539 44.9127 274.556 45.0146 274.556 45.0568C274.555 45.2422 274.37 45.4023 274.008 45.4445C273.848 45.4614 273.788 45.5284 273.561 45.5285C273.097 45.5285 272.548 45.2845 272.388 44.964C272.101 44.3734 272.084 43.7314 272.084 43.5627C272.084 42.9732 272.126 42.7705 272.126 42.7111C272.126 42.669 272.126 42.6516 272.084 42.6515C272.042 42.6515 271.999 42.6937 271.864 42.8371L271.856 42.8205L271.004 43.63C269.73 44.8447 268.633 45.2333 268.152 45.2336C267.967 45.2336 267.764 45.1749 267.485 44.9894C267.266 44.846 266.962 44.6263 266.49 44.2384C266.144 43.9516 265.967 43.5295 265.967 43.0656C265.967 42.9427 265.983 42.8026 266.011 42.6476C263.353 44.7342 261.867 46.3134 261.006 48.3136C260.314 49.9167 259.571 51.756 259.343 52.1779C258.921 52.9707 258.55 53.1056 257.639 53.1056C257.133 53.1055 256.483 52.802 256.34 52.338C256.298 52.22 256.297 52.1188 256.297 51.9923C256.297 51.0642 256.99 50.0852 257.631 49.174L259.394 46.6847C259.917 45.9591 260.263 45.2252 261.014 43.6476C261.174 43.3017 261.199 43.183 261.199 43.1408C261.199 43.1239 261.199 43.0988 261.183 43.0988C261.14 43.0988 261.039 43.1835 260.837 43.3859C260.493 43.7303 259.713 44.2494 259.007 44.2541C258.792 44.2532 258.57 44.2349 258.331 44.1115C258.103 43.9974 257.793 43.7902 257.519 43.5705C257.485 43.6079 257.447 43.6483 257.402 43.6896L256.576 44.4572C256.23 44.7609 255.378 45.4277 254.534 45.4279C254.07 45.4279 253.606 45.2675 253.176 44.7785C252.855 44.4157 252.425 43.8243 252.425 42.8371C252.425 42.2719 252.568 41.7234 252.745 41.2003C252.888 40.8125 252.964 40.492 253.091 40.2052C253.325 39.6583 253.552 39.117 253.782 38.5744C253.693 38.6059 253.593 38.6271 253.479 38.6271C253.26 38.6271 252.829 38.4416 252.627 38.4416C252.525 38.4418 251.758 38.8298 251.192 39.1925C249.513 40.2641 247.994 41.884 247.463 44.2716C247.379 44.6344 247.219 44.8962 246.915 45.1662C246.772 45.2843 246.611 45.3263 246.468 45.3263C246.147 45.3263 245.919 45.1825 245.557 44.7775C245.337 44.5328 245.168 44.2126 245.168 43.9679C245.168 43.2002 245.978 42.5673 246.223 41.8586C246.599 40.7865 246.953 39.7133 247.264 38.6261L247.261 38.6271C247.041 38.6271 246.611 38.4416 246.408 38.4416C246.306 38.4423 245.538 38.8301 244.974 39.1925C243.295 40.2641 241.777 41.8841 241.245 44.2716C241.161 44.6344 241 44.8962 240.696 45.1662C240.553 45.2842 240.392 45.3263 240.249 45.3263C239.928 45.3263 239.701 45.1824 239.338 44.7775C239.119 44.5328 238.95 44.2125 238.95 43.9679C238.95 43.2001 239.76 42.5673 240.005 41.8586C240.452 40.5845 240.874 39.3102 241.22 38.0109C241.338 37.5638 241.422 37.0994 241.422 36.9982C241.422 36.8128 241.236 36.7367 241.236 36.5343C241.237 36.2475 241.743 35.9865 242.291 35.9865C242.738 35.9865 243.101 36.2055 243.16 36.3068C243.422 36.7539 243.48 37.1166 243.48 37.4035C243.48 37.7241 243.438 37.91 243.438 37.9269C243.439 37.9688 243.455 37.9854 243.48 37.9855C243.523 37.9855 243.582 37.9433 243.684 37.8673L243.691 37.8761C244.341 37.3869 245.598 36.5601 246.265 36.5597C246.748 36.5597 247.232 36.6678 247.625 36.9132C247.582 36.7841 247.455 36.7026 247.455 36.5343C247.455 36.2475 247.961 35.9865 248.51 35.9865C248.957 35.9866 249.32 36.2056 249.379 36.3068C249.64 36.7538 249.699 37.1167 249.699 37.4035C249.699 37.7241 249.657 37.91 249.657 37.9269C249.657 37.9689 249.674 37.9855 249.699 37.9855C249.741 37.9855 249.8 37.9432 249.901 37.8673L249.91 37.8761C250.56 37.3868 251.817 36.5599 252.483 36.5597C253.15 36.5597 253.817 36.7627 254.247 37.2521C254.274 37.2826 254.297 37.3127 254.315 37.3419C254.537 36.8392 254.766 36.3295 255.015 35.8087C255.234 35.3448 255.707 35.2013 256.171 35.2013C256.416 35.2013 256.778 35.2187 257.099 35.4464C257.217 35.5308 257.318 35.7498 257.318 35.9523C257.318 36.7623 256.221 37.9355 256.019 38.3996C255.698 39.1505 255.124 40.5083 254.846 41.2169C254.761 41.4194 254.382 42.4919 254.382 43.1837C254.382 43.428 254.382 43.5878 254.542 43.588C254.728 43.588 255.049 43.4027 255.698 42.9386C255.943 42.7783 256.263 42.4749 256.77 42.4748C256.793 42.4748 256.816 42.4771 256.839 42.4777C256.839 42.4627 256.837 42.4477 256.837 42.4328C256.837 41.9096 257.184 40.9726 257.605 40.2638C257.994 39.6395 258.559 38.8888 259.386 37.9777C259.892 37.4293 261.149 36.1382 262.482 35.632C262.744 35.5308 263.073 35.4123 263.554 35.4123C264.465 35.4123 265.418 36.0034 265.696 36.4084C265.899 36.6951 265.899 36.9563 265.899 37.2599C265.899 37.5046 265.899 37.7664 265.781 37.9689C264.727 39.7914 264.043 41.1498 263.638 41.9767C263.494 42.2634 263.452 42.3648 263.452 42.3986C263.452 42.4153 263.452 42.4402 263.469 42.4406C263.511 42.4406 263.553 42.4235 263.874 42.1535C264.701 41.4617 265.435 40.9815 266.203 40.5343C266.549 40.3319 266.591 40.3146 266.827 40.3146C266.881 40.3146 266.933 40.3179 266.982 40.3234C267.661 39.2114 268.686 37.9986 270.076 36.9904C271.072 36.2817 272.101 35.7329 273.299 35.4123C273.518 35.3532 273.662 35.3283 273.848 35.3283C274.413 35.3284 274.945 35.6148 275.35 36.0197C275.493 36.163 275.611 36.3234 275.695 36.4836C275.737 36.5679 275.796 36.6442 276.041 36.7033C276.53 36.8214 276.767 36.9905 276.767 37.2521C276.767 37.2627 276.765 37.2738 276.765 37.2853C276.92 37.2268 277.111 37.1925 277.315 37.1925C277.433 37.1925 277.56 37.1924 277.703 37.2345C278.049 37.3357 278.327 37.4961 278.496 37.4962C278.614 37.4962 278.657 37.4375 278.699 37.2941C278.8 36.9482 278.901 36.6691 279.02 36.3654C279.509 35.1504 280.032 33.6147 280.682 32.172C280.783 31.9529 280.868 31.8685 281.087 31.8263C281.306 31.7842 281.433 31.7248 281.593 31.7248ZM149.639 42.5168C149.858 42.5168 150.347 42.5591 150.693 43.0822C150.854 43.3269 151.157 43.5715 151.157 43.8078C151.157 43.8668 151.141 43.9677 151.073 44.0519L148.483 47.9845C148.365 48.1702 148.12 48.4484 147.757 48.4484C147.596 48.4482 147.251 48.3301 147.065 48.3048C146.559 48.2458 146.398 47.8403 146.398 47.6125C146.399 47.5114 146.441 47.3933 146.542 47.2082L147.842 44.9972L147.833 45.006C147.934 44.8457 148.626 43.5036 148.888 43.0226C149.006 42.8033 149.175 42.5168 149.639 42.5168ZM67.8203 35.0246C68.2421 35.0246 68.7735 35.1427 69.1953 35.5138C69.3809 35.6741 69.4409 35.7588 69.5 35.9191C69.8035 36.7115 69.9214 36.8468 70.3936 36.8468V36.8634C70.6973 36.8634 71.1447 36.8049 71.8955 36.8048C72.2326 36.8048 72.5287 36.8501 72.7705 36.924C72.8799 36.6794 73.0038 36.4345 73.1445 36.1886C73.3639 35.7836 73.7354 35.5812 74.1572 35.5812C74.4779 35.5813 75.0516 35.7668 75.1865 36.0705C75.2709 36.2561 75.4053 36.4168 75.4053 36.6193C75.4051 36.8049 75.2869 37.0411 74.9834 37.2687C74.8399 37.37 74.5789 37.5561 74.4355 38.1378C73.9884 39.9011 73.1362 41.8666 72.9336 43.3009C72.9167 43.4444 72.8916 43.622 72.8916 43.6642C72.8916 43.7064 72.8914 43.7658 72.9336 43.7658C72.9927 43.7657 73.0937 43.7062 73.2539 43.5461C73.9035 42.8964 73.8195 42.8542 74.1484 42.5168C75.3803 41.2005 76.4772 39.7236 77.1016 38.0783C77.2028 37.8169 77.2875 37.7325 77.5068 37.6144C77.6923 37.5133 77.8525 37.4543 78.0127 37.4543C78.3585 37.4543 78.578 37.6568 78.7383 37.716C79.2023 37.9016 79.3291 38.079 79.3291 38.3068C79.3291 38.5511 79.2868 38.6691 79.2109 38.8293C78.6035 40.0442 77.9788 41.7485 77.751 43.3009C77.6666 43.8914 77.6328 44.2547 77.6328 44.4572C77.6328 44.7608 77.6751 45.0646 77.8184 45.4103C77.9027 45.6127 78.0214 45.8747 78.0215 46.1193C78.0215 46.2796 77.9623 46.6085 77.4561 46.6086C77.1101 46.6086 76.7051 46.4233 76.4014 46.2209C76.0555 46.0015 75.9962 46.1195 75.8359 45.7316C75.6756 45.3435 75.6338 44.9382 75.6338 44.5753C75.6338 44.314 75.6757 43.8508 75.6758 43.8078C75.6758 43.7656 75.6584 43.7482 75.6162 43.7482C75.5743 43.7483 75.5566 43.767 75.2119 44.1369C74.564 44.8268 73.7397 45.5071 73.208 45.5109C73.0552 45.5091 72.3122 45.4075 71.752 45.0646C70.9846 44.6007 70.959 44.1368 70.959 43.4621C70.959 42.7533 71.2204 41.8584 71.4229 41.175C71.5831 40.6266 71.626 40.264 71.7441 39.9181C71.9442 39.3621 72.1045 38.7832 72.2959 38.1916C71.9002 38.2832 71.5355 38.4144 71.0859 38.4836C70.7991 38.5257 70.5374 38.5255 70.335 38.5255C70.2506 38.5255 70.1916 38.585 70.1494 38.7453C69.6263 40.8884 68.9339 42.5926 67.6768 43.9679C67.1874 44.491 66.5633 45.2003 65.6943 45.2003C65.475 45.2003 65.2298 45.1405 65.0273 45.0392C64.2344 44.6511 63.5928 44.1701 63.4072 43.6808C63.188 43.1157 63.1035 42.567 63.1035 42.0187C63.1036 40.3819 63.9559 38.8631 64.8418 37.5216C64.9852 37.3023 65.1876 37.1333 65.3311 36.9308C65.9385 36.0618 66.8079 35.0247 67.8203 35.0246ZM167.948 31.6916C168.716 31.6916 169.932 32.1559 170.421 32.5187C170.927 32.9068 171.087 33.3876 171.087 33.8937C171.087 34.6445 170.741 35.4122 170.581 35.9015C170.539 36.0196 170.134 36.7538 169.526 36.7541C169.265 36.7541 169.078 36.5934 168.876 36.5343C168.227 36.3487 168.007 35.9687 168.007 35.7072H167.999C167.999 35.4205 168.404 35.159 168.488 34.8976C168.59 34.577 168.708 34.5091 168.792 34.3488C168.851 34.2305 168.935 33.9273 168.936 33.6408C168.936 33.3961 168.893 33.2521 168.648 33.2521C168.505 33.2521 168.362 33.2695 168.143 33.3117C167.012 33.5142 166.033 34.6697 165.392 35.2941L164.868 35.8009C163.088 37.5222 161.788 40.0111 161.282 42.2384C161.24 42.441 161.14 42.8882 161.14 43.2677C161.14 43.5713 161.182 43.7146 161.3 43.9591C161.46 44.2798 161.519 44.3644 161.789 44.3644C162.093 44.3643 163.122 44.0438 163.813 43.4113C165.897 41.5298 166.346 41.3275 166.81 40.8634C166.97 40.7032 167.475 40.1125 167.476 40.0109C167.476 39.969 167.434 39.9689 167.417 39.9689C167.4 39.9689 167.358 39.9686 167.155 40.0529C166.852 40.171 166.387 40.3146 165.999 40.3146C165.914 40.3146 165.333 40.2972 165.071 40.0949C164.624 39.7489 164.464 39.673 164.464 39.3439C164.464 38.897 164.481 38.8208 164.953 38.7365C165.173 38.6943 165.502 38.6773 165.822 38.5929C167.121 38.3061 167.527 37.9855 168.21 37.9855C168.598 37.9855 168.936 38.1294 169.366 38.5343C169.754 38.897 169.872 39.1842 169.872 39.4289C169.872 39.6904 169.729 39.9775 169.568 40.298C168.455 42.5845 168.21 44.7696 168.21 45.5627C168.21 45.723 167.745 46.1115 167.214 46.1115C166.928 46.1114 166.826 46.0103 166.691 45.9933C166.126 45.909 165.999 45.8495 165.999 45.4025C165.999 44.9137 166.244 43.9702 166.244 43.9259C166.244 43.884 166.227 43.8666 166.202 43.8664C166.177 43.8664 166.142 43.8841 165.999 44.0275C165.493 44.5168 164.784 45.1577 163.713 45.5627C163.325 45.7061 162.413 45.9259 161.949 45.9259C161.224 45.9259 160.515 45.6642 159.907 45.0568C159.215 44.365 158.954 43.8837 158.954 43.2931C158.954 41.9769 159.376 38.5345 162.784 34.7462C163.653 33.7759 165.316 32.4166 166.632 31.9103C167.155 31.7078 167.501 31.6916 167.948 31.6916ZM239.076 32.215C239.802 32.215 240.738 32.5354 240.738 32.9826C240.738 34.037 240.434 33.7331 240.029 34.5177C239.987 34.6021 239.911 34.7033 239.844 34.8634C239.599 35.5131 236.723 43.4534 236.723 44.0187C236.723 44.1199 236.765 44.179 236.765 44.3224C236.765 44.6431 236.68 45.6553 236.056 45.7228C235.87 45.7397 235.836 46.0861 235.507 46.0861L235.516 46.0773C235.271 46.0773 235.153 45.8744 235.026 45.8576C234.807 45.8154 234.562 45.5963 234.436 45.5373C234.393 45.5203 234.132 45.4777 234.132 45.2502C234.132 45.147 234.318 44.035 234.495 43.7316C234.579 43.5883 234.596 43.5123 234.655 43.2677C235.448 40.129 236.495 37.5135 237.474 34.4591C237.693 33.7504 237.676 34.2565 238.267 32.5353C238.351 32.2738 238.772 32.215 239.076 32.215ZM231.103 29.3459C231.71 29.3459 232.402 29.8523 232.402 30.2404C232.402 30.7044 232.285 31.0085 232.015 31.3712C231.829 31.6159 231.769 31.8769 231.55 32.2228C230.394 34.0622 228.774 36.2898 228.226 37.8507L227.922 38.7199C226.749 42.0611 226.42 43.5039 226.42 44.2043C226.42 44.9042 226.58 45.1575 226.58 45.3009C226.58 45.4865 226.294 45.7484 226.192 45.8244C226.074 45.9256 225.906 45.9845 225.729 45.9845C225.205 45.9845 224.572 45.6216 224.53 45.4191C224.446 45.0312 224.429 44.6517 224.429 44.2638C224.429 43.3694 224.648 42.3563 224.978 41.4113C225.079 41.1083 225.137 40.9229 225.138 40.8634C225.138 40.8466 225.121 40.8207 225.096 40.8205C225.054 40.8205 224.935 40.9647 224.674 41.2853C223.577 42.6606 222.26 44.0782 220.708 44.9894C220.463 45.1327 220.185 45.1496 219.982 45.1496C219.434 45.1496 218.362 44.6265 218.219 44.3986C217.974 43.9937 217.898 43.5886 217.898 43.1837C217.898 42.4161 218.261 41.6818 218.59 41.0744C219.096 40.1209 221.814 36.1125 224.421 36.1125C224.682 36.1125 225.028 36.1297 225.247 36.256C225.61 36.4585 225.669 36.4163 225.914 36.5597C227.922 34.4167 228.648 32.1887 230.487 29.6154L230.495 29.633C230.698 29.3462 230.858 29.3459 231.103 29.3459ZM345.321 29.3459C345.929 29.3459 346.621 29.8523 346.621 30.2404C346.621 30.7044 346.502 31.0085 346.232 31.3712C346.047 31.6158 345.988 31.8771 345.769 32.2228C344.613 34.0621 342.993 36.2898 342.444 37.8507L342.141 38.7199C340.968 42.0611 340.639 43.5039 340.639 44.2043C340.639 44.9042 340.799 45.1575 340.799 45.3009C340.799 45.4864 340.513 45.7482 340.411 45.8244C340.293 45.9256 340.123 45.9845 339.946 45.9845C339.423 45.9843 338.791 45.6215 338.749 45.4191C338.665 45.0312 338.647 44.6518 338.647 44.2638C338.647 43.3694 338.866 42.3563 339.195 41.4113C339.296 41.1082 339.356 40.9229 339.356 40.8634C339.356 40.8466 339.339 40.8205 339.313 40.8205C339.271 40.8214 339.152 40.9657 338.892 41.2853C337.795 42.6605 336.479 44.0783 334.927 44.9894C334.682 45.1327 334.404 45.1495 334.201 45.1496C333.653 45.1496 332.582 44.6265 332.438 44.3986C332.308 44.1839 332.226 43.9687 332.178 43.7541C331.629 44.1766 330.906 44.657 329.872 45.2423V45.2248C329.585 45.3851 329.323 45.4445 328.978 45.4445C328.37 45.4444 327.704 45.1827 326.768 44.6935C326.261 44.432 325.899 43.8666 325.671 43.2169C325.619 43.0668 325.575 42.9136 325.537 42.7599C325.409 42.8912 325.27 43.0293 325.113 43.175C324.506 43.7402 323.654 44.3734 322.118 45.2423V45.2248C321.831 45.3851 321.57 45.4445 321.224 45.4445C320.616 45.4444 319.949 45.1828 319.013 44.6935C318.507 44.4319 318.144 43.8665 317.916 43.2169C317.756 42.7531 317.654 42.2638 317.654 41.8C317.654 41.5132 317.697 41.2512 317.772 40.9728C318.363 38.9311 319.697 37.1846 321.198 35.59C321.645 35.1259 322.431 34.6359 323.511 34.6359C323.916 34.6359 324.422 34.7207 324.869 34.881C325.493 35.1005 325.679 35.708 325.679 36.2394C325.679 37.0494 325.071 38.1634 324.607 38.7287C323.35 40.2641 321.89 41.8075 320.11 42.8791C319.908 42.9972 319.891 43.023 319.891 43.1242C319.891 43.2423 320.077 43.6306 320.254 43.715C320.372 43.7739 320.498 43.8166 320.642 43.8166C321.249 43.8166 322 43.293 322.245 43.1496C323.502 42.4239 324.371 41.3439 325.4 40.7365C325.485 40.6873 325.562 40.6524 325.635 40.6271C326.27 38.7326 327.537 37.094 328.953 35.59C329.4 35.1259 330.185 34.6359 331.265 34.6359C331.67 34.6359 332.176 34.7207 332.623 34.881C333.247 35.1004 333.433 35.7079 333.433 36.2394C333.433 37.0494 332.825 38.1634 332.361 38.7287C331.104 40.2641 329.644 41.8076 327.864 42.8791C327.662 42.9972 327.645 43.023 327.645 43.1242C327.645 43.2423 327.831 43.6306 328.008 43.715C328.126 43.774 328.252 43.8165 328.396 43.8166C329.003 43.8166 329.754 43.293 329.999 43.1496C331.156 42.4816 331.985 41.5133 332.912 40.8898C333.614 39.6911 336.175 36.1126 338.639 36.1125C338.9 36.1125 339.246 36.1295 339.466 36.256C339.828 36.4584 339.888 36.4166 340.132 36.5597C342.14 34.4166 342.866 32.1888 344.705 29.6154L344.714 29.633C344.916 29.3461 345.077 29.3459 345.321 29.3459ZM347.211 34.965C348.468 34.965 349.034 35.3282 349.481 35.8175C349.802 36.1635 349.903 36.7879 349.903 37.1759C349.903 37.7411 349.743 38.3317 349.312 38.88C349.127 39.1247 349.068 39.1417 348.865 39.1418C348.477 39.1418 348.097 38.9817 347.869 38.7961C347.625 38.5936 347.523 38.3315 347.523 38.1291C347.523 38.0279 347.541 37.9264 347.583 37.8673C347.684 37.6815 347.929 37.2433 347.929 36.8976C347.929 36.7795 347.911 36.6783 347.869 36.5939C347.827 36.5095 347.785 36.4503 347.726 36.4503C347.683 36.4507 347.625 36.493 347.507 36.6359C347.304 36.8806 347.102 37.1593 346.941 37.463V37.4543C346.739 37.8171 346.638 38.1631 346.638 38.6271C346.638 39.1924 346.756 40.3313 347.043 42.0861C347.229 43.2167 347.389 44.154 347.389 44.6349C347.388 44.9979 346.638 45.7899 345.71 45.7902C345.524 45.7902 345.364 45.7732 345.119 45.672C343.702 45.0814 342.731 44.0104 342.081 42.8966C341.997 42.7532 341.938 42.6346 341.938 42.5334C341.938 42.2717 342.259 41.7238 342.934 41.7238C343.136 41.7238 343.296 41.7404 343.439 41.8078C343.743 41.9512 343.861 42.0531 343.929 42.1291C344.249 42.5762 344.536 43.2849 344.983 43.7912C345.126 43.951 345.203 44.0348 345.245 44.0353C345.287 44.0353 345.288 44.0187 345.288 43.9767C345.288 43.8923 345.271 43.7736 345.026 42.4152C344.765 40.9811 344.562 39.075 344.562 38.7707C344.562 38.2222 344.807 37.0658 345.288 36.298C345.853 35.3873 346.705 34.9653 347.211 34.965ZM186.24 31.7248C186.561 31.7248 186.949 31.81 187.236 31.9113C187.498 32.0125 187.6 32.1304 187.6 32.2316C187.6 32.2909 187.557 32.5354 187.515 32.7209C187.194 34.1805 186.181 35.7162 185.709 36.7287C185.591 36.9902 185.507 37.1761 185.405 37.4377C185.363 37.5384 185.347 37.6225 185.347 37.6564H185.354C185.354 37.6564 185.371 37.6989 185.396 37.6994C185.439 37.6994 185.515 37.6817 185.6 37.6564C186.452 37.4539 187.422 37.1083 188.013 36.7287C188.131 36.6444 188.215 36.6271 188.375 36.6271C188.568 36.6271 188.829 36.6854 189.067 36.7785C189.403 36.3719 189.758 35.9766 190.122 35.59C190.569 35.126 191.354 34.636 192.434 34.6359C192.839 34.6359 193.345 34.7207 193.792 34.881C194.416 35.1004 194.603 35.7078 194.603 36.2394C194.602 37.0494 193.994 38.1634 193.53 38.7287C192.273 40.2641 190.813 41.8076 189.033 42.8791C188.831 42.9971 188.814 43.023 188.814 43.1242C188.814 43.2423 189 43.6305 189.177 43.715C189.295 43.7741 189.422 43.8166 189.565 43.8166C190.173 43.8164 190.923 43.2932 191.168 43.1496C192.425 42.4239 193.295 41.344 194.324 40.7365C194.526 40.6185 194.687 40.5764 194.847 40.5763C195.252 40.5763 195.598 40.8634 195.598 41.1671C195.598 41.5549 195.597 41.6136 195.454 41.757C194.99 42.162 194.645 42.6097 194.037 43.175C193.43 43.7403 192.578 44.3733 191.042 45.2423V45.2248C190.755 45.3851 190.493 45.4445 190.147 45.4445C189.54 45.4445 188.873 45.1829 187.937 44.6935C187.43 44.4319 187.068 43.8666 186.84 43.2169C186.68 42.753 186.578 42.2639 186.578 41.8C186.578 41.5131 186.62 41.2512 186.696 40.9728C186.928 40.1733 187.273 39.4189 187.697 38.7013C186.84 38.9851 185.84 39.1788 185.018 39.4796C184.672 39.5978 184.553 39.8842 184.367 40.5929C184.283 40.9388 184.165 41.0572 184.123 41.3019C184.022 41.9517 183.33 43.6136 183.212 44.6007C183.17 44.9467 182.967 45.5968 182.258 45.5968C181.912 45.5967 181.507 45.4533 181.263 45.2931C181.018 45.1328 180.959 44.8454 180.959 44.6007C180.959 44.3985 181.001 44.213 181.043 44.0949C181.532 42.6605 181.896 41.0402 182.419 39.6818C182.503 39.4794 182.537 39.3776 182.537 39.3185C182.537 39.2598 182.519 39.2341 182.376 39.1584C181.811 38.8378 181.727 38.3904 181.221 37.9855C181.167 37.9396 181.125 37.8964 181.094 37.8527C180.261 38.9695 179.373 40.3189 179.019 41.6896C178.9 42.179 178.757 42.7872 178.757 43.3947C178.757 43.9007 178.841 44.4067 179.145 44.8537C179.187 44.9127 179.204 45.0146 179.204 45.0568C179.204 45.2423 179.018 45.4023 178.655 45.4445C178.495 45.4614 178.436 45.5285 178.208 45.5285C177.744 45.5284 177.196 45.2845 177.035 44.964C176.748 44.3734 176.731 43.7314 176.731 43.5627C176.731 42.9732 176.773 42.7705 176.773 42.7111C176.773 42.6689 176.774 42.6515 176.731 42.6515C176.689 42.6516 176.647 42.6941 176.513 42.8371L176.504 42.8205L175.651 43.63C174.377 44.845 173.281 45.2335 172.8 45.2336C172.614 45.2336 172.411 45.175 172.133 44.9894C171.913 44.846 171.61 44.6264 171.138 44.2384C170.792 43.9516 170.614 43.5295 170.614 43.0656C170.614 41.8675 171.931 39.0154 174.724 36.9904C175.719 36.2817 176.748 35.7329 177.946 35.4123C178.166 35.3532 178.309 35.3283 178.495 35.3283C179.06 35.3283 179.592 35.6147 179.997 36.0197C180.14 36.163 180.258 36.3234 180.343 36.4836C180.385 36.5679 180.444 36.6442 180.688 36.7033C181.178 36.8214 181.414 36.9905 181.414 37.2521C181.414 37.2627 181.413 37.2738 181.412 37.2853C181.567 37.2267 181.758 37.1925 181.963 37.1925C182.081 37.1925 182.207 37.1925 182.351 37.2345C182.697 37.3358 182.976 37.4962 183.145 37.4962C183.262 37.4961 183.305 37.4373 183.347 37.2941C183.448 36.9482 183.549 36.6691 183.667 36.3654C184.156 35.1504 184.679 33.6147 185.329 32.172C185.43 31.9528 185.515 31.8685 185.734 31.8263C185.954 31.7842 186.08 31.7249 186.24 31.7248ZM35.6738 35.3283C36.239 35.3284 36.7709 35.6148 37.1758 36.0197C37.3191 36.163 37.4371 36.3234 37.5215 36.4836C37.5637 36.5679 37.6226 36.6442 37.8672 36.7033C38.3566 36.8214 38.5928 36.9905 38.5928 37.2521C38.5927 37.3363 38.5759 37.454 38.5088 37.5382C37.6145 38.711 36.5844 40.1878 36.1963 41.6896C36.0782 42.179 35.9346 42.7872 35.9346 43.3947C35.9346 43.9007 36.0197 44.4066 36.3232 44.8537C36.3654 44.9127 36.3818 45.0146 36.3818 45.0568C36.3816 45.2422 36.1964 45.4023 35.834 45.4445C35.6737 45.4614 35.6144 45.5285 35.3867 45.5285C34.9228 45.5285 34.3744 45.2845 34.2139 44.964C33.927 44.3734 33.9102 43.7314 33.9102 43.5627C33.9102 42.9732 33.952 42.7705 33.9521 42.7111C33.9521 42.6689 33.9522 42.6515 33.9102 42.6515C33.868 42.6515 33.8254 42.6937 33.6904 42.8371L33.6826 42.8205L32.8301 43.63C31.5563 44.8448 30.4596 45.2334 29.9785 45.2336C29.7929 45.2336 29.5899 45.175 29.3115 44.9894C29.0922 44.846 28.7886 44.6263 28.3164 44.2384C27.9706 43.9516 27.7931 43.5295 27.793 43.0656C27.793 41.8675 29.1095 39.0154 31.9023 36.9904C32.8979 36.2817 33.927 35.7329 35.125 35.4123C35.3444 35.3532 35.4882 35.3283 35.6738 35.3283ZM207.048 35.3283C207.613 35.3283 208.145 35.6147 208.55 36.0197C208.693 36.163 208.811 36.3233 208.896 36.4836C208.938 36.5679 208.997 36.6442 209.241 36.7033C209.731 36.8214 209.967 36.9905 209.967 37.2521C209.967 37.3364 209.95 37.454 209.883 37.5382C208.988 38.711 207.958 40.1878 207.57 41.6896C207.452 42.179 207.31 42.7872 207.31 43.3947C207.31 43.9007 207.394 44.4067 207.697 44.8537C207.739 44.9127 207.757 45.0146 207.757 45.0568C207.757 45.2423 207.571 45.4023 207.208 45.4445C207.048 45.4614 206.989 45.5285 206.761 45.5285C206.297 45.5285 205.748 45.2845 205.588 44.964C205.301 44.3734 205.284 43.7314 205.284 43.5627C205.284 42.9732 205.326 42.7705 205.326 42.7111C205.326 42.6689 205.326 42.6515 205.284 42.6515C205.242 42.6516 205.199 42.6937 205.064 42.8371L205.057 42.8205L204.204 43.63C202.93 44.8449 201.834 45.2335 201.353 45.2336C201.167 45.2336 200.964 45.175 200.686 44.9894C200.466 44.846 200.163 44.6264 199.69 44.2384C199.345 43.9516 199.167 43.5295 199.167 43.0656C199.167 41.8675 200.484 39.0154 203.276 36.9904C204.272 36.2817 205.301 35.7329 206.499 35.4123C206.718 35.3532 206.862 35.3283 207.048 35.3283ZM50.2793 30.3586C50.6841 30.3587 51.0465 30.5187 51.1309 30.7043C51.2321 30.9235 51.3163 31.1091 51.3164 31.3283C51.3164 31.5897 51.2325 31.8346 51.0977 32.0539C49.2752 34.9478 47.2333 37.6059 46.0352 40.7023C45.6892 41.5967 45.2842 42.2046 45.2842 43.4533C45.2842 43.8161 45.3854 43.9005 45.4697 43.9005C45.5119 43.9005 45.5709 43.8831 45.6299 43.841V43.8498C46.7856 43.082 47.469 41.6226 48.5234 41.6222C48.8102 41.6222 49.5357 41.8079 49.5361 42.2716C49.5361 42.5584 49.334 42.677 49.1484 42.8625C48.7012 43.3265 47.2834 45.5119 45.7646 45.5119C45.6467 45.5119 45.5203 45.4951 45.4023 45.4699C44.6514 45.3096 44.0855 44.9635 43.7227 44.5753C43.4779 44.3204 43.3507 44.1084 43.2881 43.841C42.6264 44.6089 41.6942 45.5119 40.7188 45.5119C40.6008 45.5118 40.4744 45.4952 40.3564 45.4699C39.6056 45.3096 39.0406 44.9634 38.6777 44.5753C38.2727 44.1535 38.1875 43.8498 38.1875 43.2169C38.1875 42.1203 38.635 41.1333 39.0146 40.1378C39.909 37.8935 41.6473 34.7122 43.166 32.1388C43.3854 31.7761 43.5879 30.3755 44.541 30.3752C44.8026 30.3752 45.0056 30.3586 45.2334 30.3586C45.6382 30.3586 46.0005 30.5187 46.085 30.7043C46.1862 30.9235 46.2714 31.1091 46.2715 31.3283C46.2715 31.5897 46.1866 31.8346 46.0518 32.0539C44.2293 34.9478 42.1874 37.6059 40.9893 40.7023C40.6433 41.5967 40.2383 42.2046 40.2383 43.4533C40.2383 43.816 40.3395 43.9005 40.4238 43.9005C40.466 43.9005 40.5249 43.8832 40.584 43.841V43.8498C41.7399 43.0819 42.4238 41.6222 43.4785 41.6222C43.4881 41.6222 43.4982 41.6238 43.5088 41.6242C43.6674 41.1212 43.8726 40.6307 44.0605 40.1378C44.9549 37.8935 46.6932 34.7123 48.2119 32.1388C48.4313 31.776 48.6335 30.3752 49.5869 30.3752C49.8485 30.3752 50.0515 30.3586 50.2793 30.3586ZM73.2119 45.5119H73.2031C73.2046 45.5119 73.2065 45.5109 73.208 45.5109C73.2094 45.5109 73.2107 45.5119 73.2119 45.5119ZM106.818 34.6359C107.223 34.6359 107.73 34.7207 108.177 34.881C108.801 35.1004 108.987 35.7078 108.987 36.2394C108.987 37.0494 108.379 38.1634 107.915 38.7287C106.658 40.2641 105.198 41.8076 103.418 42.8791C103.216 42.9972 103.199 43.023 103.199 43.1242C103.199 43.2423 103.384 43.6305 103.562 43.715C103.68 43.7741 103.807 43.8166 103.95 43.8166C104.557 43.8163 105.308 43.2931 105.553 43.1496C106.81 42.4239 107.68 41.344 108.709 40.7365C108.859 40.649 108.986 40.602 109.106 40.5841C109.247 40.2489 109.383 39.9321 109.484 39.6906C110.075 38.29 110.54 37.3446 111.426 36.0031C111.527 35.8597 111.611 35.6573 111.746 35.5392C111.906 35.3958 112.269 35.3195 112.657 35.3195C113.104 35.3195 113.526 35.4376 113.687 35.7834C113.771 35.9435 113.788 36.1039 113.788 36.2472C113.788 36.5678 113.526 36.9142 113.265 37.2179C112.818 37.7072 112.438 38.1882 111.89 39.2257C111.645 39.6729 111.181 40.6857 110.557 42.3224C110.337 42.913 110.312 42.9726 110.312 43.0148C110.312 43.0315 110.312 43.0564 110.328 43.0568C110.345 43.0568 110.413 43.0396 110.548 42.8371C111.375 41.6391 112.253 40.568 113.181 39.5978L113.206 39.5802C114.437 38.3067 114.666 38.0621 114.826 37.6994C115.113 37.0498 115.231 36.7708 115.652 36.7707C116.074 36.7707 116.201 36.9307 116.42 36.9562C116.985 37.0153 117.129 37.5046 117.129 37.7072C117.129 37.7916 117.011 38.0956 116.927 38.2306C116.218 39.4034 115.856 40.1715 115.552 41.1671C115.434 41.5554 115.307 42.5425 115.307 42.9474C115.307 43.091 115.349 43.3692 115.45 43.757C115.492 43.9173 115.594 44.0606 116.074 44.381C116.319 44.5413 116.438 44.7866 116.438 45.006C116.437 45.2675 116.218 45.5119 115.771 45.5119C115.366 45.5118 114.716 45.4279 114.438 45.1496C114.159 44.8712 113.788 44.6855 113.61 44.424C113.349 44.0359 113.265 43.5121 113.265 43.048C113.265 42.9047 113.281 42.602 113.281 42.5255C113.281 42.4665 113.265 42.4406 113.239 42.4406C113.197 42.4407 113.154 42.4838 112.952 42.7619L111.897 44.2209C111.552 44.7101 111.349 44.7103 111.088 45.0138C110.944 45.1741 110.683 45.3009 110.337 45.3009C110.134 45.3009 109.831 45.2167 109.688 45.1408C109.24 44.8961 108.674 44.5165 108.455 44.2296C108.371 44.1283 108.27 43.8666 108.27 43.6388C108.27 43.5171 108.284 43.3973 108.305 43.2794C107.705 43.8182 106.867 44.4272 105.427 45.2423V45.2248C105.14 45.385 104.878 45.4445 104.532 45.4445C103.925 45.4445 103.258 45.1829 102.321 44.6935C101.815 44.4319 101.452 43.8666 101.225 43.2169C101.064 42.753 100.963 42.2639 100.963 41.8C100.963 41.5131 101.005 41.2512 101.081 40.9728C101.672 38.931 103.005 37.1846 104.507 35.59C104.954 35.126 105.738 34.636 106.818 34.6359ZM128.52 35.2013C128.764 35.2013 129.128 35.2186 129.448 35.4464C129.566 35.531 129.667 35.75 129.667 35.9523C129.667 36.7623 128.571 37.9355 128.368 38.3996C128.048 39.1504 127.474 40.5081 127.195 41.2169C127.111 41.4194 126.731 42.4919 126.731 43.1837C126.731 43.4282 126.731 43.588 126.892 43.588C127.077 43.5879 127.398 43.4023 128.047 42.9386C128.292 42.7783 128.613 42.4748 129.119 42.4748C129.173 42.4748 129.225 42.4793 129.273 42.4826C129.278 42.4487 129.284 42.4154 129.287 42.382C129.346 41.8168 129.979 40.4163 130.283 39.6906C130.874 38.29 131.338 37.3446 132.224 36.0031C132.325 35.8596 132.41 35.6573 132.545 35.5392C132.705 35.3959 133.068 35.3195 133.456 35.3195C133.903 35.3196 134.325 35.4376 134.485 35.7834C134.57 35.9435 134.586 36.1039 134.586 36.2472C134.586 36.5678 134.325 36.9142 134.063 37.2179C133.616 37.7073 133.236 38.188 132.688 39.2257C132.443 39.6729 131.979 40.6856 131.354 42.3224C131.135 42.913 131.11 42.9726 131.11 43.0148C131.11 43.0317 131.11 43.0568 131.127 43.0568C131.144 43.0568 131.212 43.0395 131.347 42.8371C132.173 41.6392 133.051 40.5679 133.979 39.5978L134.004 39.5802C135.235 38.3067 135.464 38.062 135.624 37.6994C135.911 37.0497 136.029 36.7707 136.451 36.7707C136.873 36.7707 136.999 36.9309 137.219 36.9562C137.784 37.0153 137.928 37.5046 137.928 37.7072C137.928 37.7916 137.809 38.0956 137.725 38.2306C137.016 39.4033 136.653 40.1716 136.35 41.1671C136.232 41.5555 136.105 42.5426 136.105 42.9474C136.106 43.0909 136.147 43.3693 136.248 43.757C136.29 43.9173 136.392 44.0604 136.873 44.381C137.118 44.5413 137.235 44.7866 137.235 45.006C137.235 45.2675 137.016 45.5118 136.569 45.5119C136.164 45.5119 135.515 45.4278 135.236 45.1496C134.958 44.8712 134.586 44.6854 134.409 44.424C134.148 44.0359 134.063 43.5121 134.063 43.048C134.064 42.9047 134.08 42.602 134.08 42.5255C134.08 42.4666 134.063 42.4407 134.038 42.4406C133.996 42.4406 133.953 42.4834 133.751 42.7619L132.696 44.2209C132.351 44.71 132.148 44.7105 131.887 45.0138C131.743 45.1741 131.482 45.3008 131.136 45.3009C130.933 45.3009 130.629 45.2167 130.485 45.1408C130.038 44.8961 129.473 44.5164 129.254 44.2296C129.243 44.2163 129.234 44.1983 129.223 44.1798L128.925 44.4572C128.579 44.7609 127.727 45.4279 126.883 45.4279C126.419 45.4279 125.955 45.2676 125.524 44.7785C125.204 44.4157 124.773 43.8243 124.773 42.8371C124.773 42.7105 124.782 42.5849 124.795 42.4601C124.442 42.6384 123.918 43.0078 122.892 43.8498C121.896 44.6596 120.783 45.3516 119.812 45.3517C118.496 45.3517 117.526 44.4234 117.425 44.2209C117.265 43.9003 117.205 43.5967 117.205 43.2677C117.205 42.7194 117.365 42.2384 117.551 41.7492C117.61 41.5889 117.636 41.2599 117.771 40.9562C118.057 40.3487 119.795 36.9645 121.398 35.8507C121.862 35.5302 122.065 35.505 122.395 35.505C123.289 35.5052 124.739 36.155 124.883 36.6359C124.925 36.7792 124.942 36.8972 124.942 37.0236C124.942 37.3694 124.25 38.6011 124.25 39.1076C124.25 39.3691 124.006 39.5294 123.728 39.5294C123.466 39.5294 123.238 39.471 122.977 39.2687L122.513 38.9054C122.352 38.762 122.293 38.6607 122.293 38.4582C122.293 38.2557 122.394 37.9941 122.479 37.8507C122.698 37.4458 122.74 37.3611 122.74 37.3273C122.74 37.2688 122.698 37.2687 122.656 37.2687C122.614 37.2687 121.078 39.0914 120.285 40.5089C120.099 40.8299 119.129 42.6944 119.129 43.4875C119.129 43.6726 119.146 43.7062 119.331 43.7062C119.879 43.7062 120.749 43.2592 121.778 42.4914C123.077 41.5212 123.82 41.1331 124.326 41.133C124.547 41.133 124.796 41.218 125.026 41.4162C125.049 41.3441 125.07 41.2715 125.094 41.2003C125.237 40.8123 125.314 40.4921 125.44 40.2052C126.065 38.7455 126.639 37.3275 127.364 35.8087C127.584 35.345 128.056 35.2014 128.52 35.2013ZM213.62 35.3195C214.067 35.3195 214.489 35.4377 214.649 35.7834C214.734 35.9435 214.751 36.1039 214.751 36.2472C214.751 36.5678 214.489 36.9142 214.228 37.2179C213.78 37.7072 213.401 38.1882 212.853 39.2257C212.608 39.6729 212.144 40.6857 211.52 42.3224C211.3 42.913 211.274 42.9726 211.274 43.0148C211.274 43.0317 211.275 43.0568 211.292 43.0568C211.309 43.0566 211.377 43.0383 211.511 42.8371C212.338 41.6391 213.216 40.568 214.144 39.5978L214.169 39.5802C215.4 38.3067 215.629 38.062 215.789 37.6994C216.076 37.0497 216.194 36.7707 216.616 36.7707C217.038 36.7708 217.165 36.9309 217.384 36.9562C217.949 37.0154 218.093 37.5046 218.093 37.7072C218.093 37.7916 217.974 38.0956 217.89 38.2306C217.181 39.4033 216.818 40.1716 216.515 41.1671C216.397 41.5555 216.27 42.5425 216.27 42.9474C216.27 43.0909 216.312 43.3692 216.413 43.757C216.455 43.9173 216.557 44.0604 217.038 44.381C217.283 44.5413 217.4 44.7867 217.4 45.006C217.4 45.2675 217.18 45.5119 216.733 45.5119C216.328 45.5118 215.679 45.4279 215.4 45.1496C215.122 44.8713 214.752 44.6853 214.574 44.424C214.313 44.0359 214.228 43.5121 214.228 43.048C214.228 42.9047 214.245 42.602 214.245 42.5255C214.245 42.4665 214.227 42.4406 214.202 42.4406C214.16 42.4409 214.118 42.4844 213.916 42.7619L212.861 44.2209C212.515 44.7102 212.312 44.7102 212.051 45.0138C211.907 45.1741 211.646 45.3009 211.3 45.3009C211.097 45.3009 210.794 45.2167 210.65 45.1408C210.203 44.8962 209.638 44.5165 209.419 44.2296C209.335 44.1284 209.233 43.8666 209.233 43.6388C209.233 43.1918 209.418 42.77 209.452 42.382C209.511 41.8167 210.144 40.4163 210.448 39.6906C211.039 38.29 211.503 37.3446 212.389 36.0031C212.49 35.8597 212.574 35.6574 212.709 35.5392C212.869 35.3958 213.232 35.3195 213.62 35.3195ZM312.735 35.3195C313.182 35.3195 313.604 35.4377 313.765 35.7834C313.849 35.9435 313.866 36.1039 313.866 36.2472C313.866 36.5678 313.604 36.9142 313.343 37.2179C312.896 37.7072 312.516 38.1882 311.968 39.2257C311.723 39.6729 311.259 40.6857 310.635 42.3224C310.415 42.913 310.39 42.9726 310.39 43.0148C310.39 43.0317 310.39 43.0568 310.407 43.0568C310.425 43.0566 310.492 43.0384 310.626 42.8371C311.453 41.6391 312.331 40.568 313.259 39.5978L313.284 39.5802C314.516 38.3067 314.744 38.062 314.904 37.6994C315.191 37.0497 315.31 36.7707 315.731 36.7707C316.153 36.7708 316.28 36.9309 316.499 36.9562C317.064 37.0153 317.208 37.5046 317.208 37.7072C317.208 37.7916 317.089 38.0956 317.005 38.2306C316.296 39.4033 315.934 40.1716 315.63 41.1671C315.512 41.5555 315.385 42.5425 315.385 42.9474C315.385 43.0909 315.427 43.3692 315.528 43.757C315.57 43.9173 315.672 44.0604 316.153 44.381C316.398 44.5413 316.516 44.7867 316.516 45.006C316.516 45.2675 316.296 45.5119 315.849 45.5119C315.444 45.5118 314.794 45.4279 314.516 45.1496C314.237 44.8713 313.867 44.6853 313.689 44.424C313.428 44.0359 313.343 43.5121 313.343 43.048C313.343 42.9047 313.36 42.602 313.36 42.5255C313.36 42.4665 313.343 42.4406 313.317 42.4406C313.275 42.4409 313.233 42.4845 313.031 42.7619L311.977 44.2209C311.631 44.7102 311.428 44.7102 311.166 45.0138C311.023 45.1741 310.761 45.3009 310.415 45.3009C310.213 45.3008 309.909 45.2167 309.766 45.1408C309.319 44.8962 308.754 44.5165 308.534 44.2296C308.45 44.1284 308.349 43.8666 308.349 43.6388C308.349 43.1918 308.534 42.77 308.567 42.382C308.626 41.8167 309.26 40.4163 309.563 39.6906C310.154 38.29 310.618 37.3446 311.504 36.0031C311.605 35.8597 311.689 35.6574 311.824 35.5392C311.984 35.3958 312.347 35.3195 312.735 35.3195ZM13.2725 35.0246C13.6943 35.0247 14.2257 35.1427 14.6475 35.5138C14.8329 35.674 14.8921 35.7588 14.9512 35.9191C15.2548 36.7118 15.3733 36.8468 15.8457 36.8468V36.8634C16.1494 36.8634 16.5969 36.8048 17.3477 36.8048C17.6844 36.8049 17.9801 36.8502 18.2217 36.924C18.1822 36.7884 18.0479 36.7073 18.0479 36.5343C18.048 36.2475 18.5542 35.9865 19.1025 35.9865C19.5496 35.9865 19.9126 36.2056 19.9717 36.3068C20.2331 36.7538 20.292 37.1167 20.292 37.4035C20.292 37.7241 20.25 37.91 20.25 37.9269C20.2501 37.9689 20.2667 37.9855 20.292 37.9855C20.3342 37.9855 20.393 37.9432 20.4941 37.8673L20.5029 37.8761C21.1525 37.3868 22.4095 36.5599 23.0762 36.5597C23.7427 36.5597 24.4095 36.7627 24.8398 37.2521C24.9831 37.4123 25 37.5559 25 37.674C24.9998 37.919 24.7804 38.6269 24.0723 38.6271C23.8529 38.6271 23.4222 38.4416 23.2197 38.4416C23.118 38.4418 22.3503 38.8299 21.7852 39.1925C20.1062 40.2641 18.5872 41.884 18.0557 44.2716C17.9713 44.6344 17.8115 44.8962 17.5078 45.1662C17.3644 45.2843 17.204 45.3263 17.0605 45.3263C16.7399 45.3263 16.5122 45.1825 16.1494 44.7775C15.9301 44.5328 15.7607 44.2126 15.7607 43.9679C15.7607 43.2002 16.5707 42.5673 16.8154 41.8586C17.2477 40.6271 17.6549 39.3951 17.9941 38.1408C17.4966 38.2264 17.0784 38.4003 16.5371 38.4836C16.2503 38.5257 15.9886 38.5255 15.7861 38.5255C15.7019 38.5257 15.6427 38.5851 15.6006 38.7453C15.0775 40.8882 14.3859 42.5927 13.1289 43.9679C12.6395 44.4911 12.0146 45.2003 11.1455 45.2003C10.9262 45.2003 10.6819 45.1404 10.4795 45.0392C9.68637 44.6511 9.045 44.1702 8.85938 43.6808C8.64007 43.1156 8.55566 42.5671 8.55566 42.0187C8.55575 40.3819 9.40805 38.8631 10.2939 37.5216C10.4374 37.3024 10.6398 37.1332 10.7832 36.9308C11.3907 36.0618 12.2601 35.0246 13.2725 35.0246ZM82.4004 35.9865C82.8476 35.9865 83.2105 36.2055 83.2695 36.3068C83.531 36.7539 83.5898 37.1166 83.5898 37.4035C83.5898 37.7241 83.5479 37.91 83.5479 37.9269C83.5479 37.9688 83.5647 37.9854 83.5898 37.9855C83.632 37.9855 83.6917 37.9433 83.793 37.8673L83.8008 37.8761C84.4503 37.3869 85.7074 36.5601 86.374 36.5597C87.0406 36.5597 87.7074 36.7627 88.1377 37.2521C88.281 37.4124 88.2979 37.5559 88.2979 37.674C88.2976 37.9191 88.0784 38.6271 87.3701 38.6271C87.1507 38.6271 86.7201 38.4416 86.5176 38.4416C86.4151 38.4423 85.6487 38.8301 85.084 39.1925C83.405 40.2641 81.8861 41.8839 81.3545 44.2716C81.2701 44.6344 81.1094 44.8962 80.8057 45.1662C80.6622 45.2843 80.5018 45.3263 80.3584 45.3263C80.0378 45.3263 79.81 45.1825 79.4473 44.7775C79.228 44.5328 79.0596 44.2125 79.0596 43.9679C79.0596 43.2001 79.8696 42.5673 80.1143 41.8586C80.5614 40.5845 80.9832 39.3102 81.3291 38.0109C81.4472 37.5638 81.5312 37.0994 81.5312 36.9982C81.531 36.8128 81.3457 36.7367 81.3457 36.5343C81.3459 36.2475 81.8521 35.9865 82.4004 35.9865ZM9.32324 31.9191C11.1879 31.9191 11.5674 32.687 11.5674 33.4211C11.5674 33.5223 11.5506 33.5648 11.3818 33.6408C11.1626 33.7588 10.859 33.9024 10.5303 33.9025C10.3278 33.9025 10.1075 33.8433 9.92188 33.6408C9.80375 33.4974 9.63518 33.4552 9.45801 33.4552C9.1711 33.4553 8.56402 33.6571 8.22656 33.6994C7.37437 33.8006 6.72414 34.0625 5.93945 34.2228C5.73748 34.2653 5.88039 34.569 5.75391 34.7882C5.26466 35.6824 4.98583 36.1463 4.4375 37.5382C4.33629 37.7997 4.31935 37.8592 4.31934 37.9435C4.31934 37.9857 4.33672 38.0031 4.37891 38.0031C4.46327 38.0031 4.56466 37.9856 4.82617 37.9181C5.24813 37.8169 6.64794 37.5555 7.27246 37.4543C7.39059 37.4374 7.51801 37.3703 7.7627 37.3703C7.84718 37.3703 8.00763 37.3871 8.38672 37.5724C9.09542 37.9183 9.23926 38.079 9.23926 38.425C9.23916 38.5851 9.17921 38.7283 8.89258 38.7873C7.18846 39.1331 5.00373 39.5129 3.87305 39.8419C3.65367 39.901 3.62812 39.9604 3.58594 40.0617C3.34123 40.6693 2.85995 42.2889 2.7334 42.6095C2.6744 42.7697 2.63192 42.8541 2.63184 42.9972C2.63184 43.2419 2.44629 43.3861 2.44629 44.7023C2.44626 45.0481 2.38714 45.2677 2.02441 45.2677C1.41716 45.2677 0.894057 45.1073 0.463867 44.8459C0.244492 44.7024 0.21875 44.626 0.21875 44.4826C0.218774 43.3099 0.665986 41.9936 0.969727 40.8546C1.0541 40.5509 1.05469 40.5082 1.05469 40.466C1.05439 40.4239 1.01198 40.382 0.953125 40.382C0.531329 40.3819 0.143622 39.9771 0.143555 39.589C0.143555 39.471 0.000315688 39.3445 0 39.2433C0 39.1589 0.0589932 39.1 0.185547 39.0578C0.590547 38.9143 1.09695 38.8545 1.50195 38.7111C1.56088 38.6942 1.61994 38.652 1.7041 38.4669C2.09218 37.5727 2.39586 36.6866 2.80078 35.7502C2.88516 35.5645 2.91895 35.4625 2.91895 35.4035C2.91883 35.3616 2.90218 35.3449 2.87695 35.3449C2.81789 35.3449 2.73353 35.3871 2.57324 35.463C2.15146 35.6655 1.80556 35.8253 1.47656 35.8253L1.48438 35.8683C0.894116 35.868 0.371434 35.2608 0.371094 34.9992C0.371094 34.7545 0.616016 34.4924 0.658203 34.3068C0.675148 34.2058 0.742259 34.1634 0.876953 34.1212C2.00758 33.8597 2.98664 33.4716 3.93164 33.0666C4.39575 32.8641 5.95674 32.4757 6.91016 32.2394C7.47551 32.096 8.54706 31.9191 9.32324 31.9191ZM101.646 31.9191C103.511 31.9191 103.891 32.687 103.891 33.4211C103.891 33.5223 103.874 33.5648 103.705 33.6408C103.486 33.7589 103.182 33.9025 102.853 33.9025C102.65 33.9024 102.431 33.8431 102.245 33.6408C102.127 33.4973 101.958 33.4552 101.781 33.4552C101.494 33.4553 100.887 33.6571 100.55 33.6994C99.6976 33.8006 99.0474 34.0625 98.2627 34.2228C98.0606 34.2652 98.2037 34.569 98.0771 34.7882C97.5879 35.6824 97.3091 36.1464 96.7607 37.5382C96.6595 37.7997 96.6426 37.8592 96.6426 37.9435C96.6426 37.9857 96.66 38.0031 96.7021 38.0031C96.7865 38.0031 96.888 37.9856 97.1494 37.9181C97.5715 37.8169 98.9713 37.5555 99.5957 37.4543C99.7138 37.4374 99.8412 37.3703 100.086 37.3703C100.17 37.3703 100.331 37.3871 100.71 37.5724C101.419 37.9183 101.562 38.079 101.562 38.425C101.562 38.5851 101.502 38.7283 101.216 38.7873C99.5115 39.1332 97.3259 39.5129 96.1953 39.8419C95.9763 39.901 95.9513 39.9605 95.9092 40.0617C95.6645 40.6693 95.1832 42.2889 95.0566 42.6095C94.9976 42.7697 94.9552 42.8541 94.9551 42.9972C94.9551 43.2419 94.7695 43.3861 94.7695 44.7023C94.7695 45.0481 94.7104 45.2677 94.3477 45.2677C93.7404 45.2677 93.2173 45.1073 92.7871 44.8459C92.5677 44.7024 92.542 44.626 92.542 44.4826C92.542 43.3098 92.9892 41.9936 93.293 40.8546C93.3773 40.5509 93.3779 40.5082 93.3779 40.466C93.3776 40.4239 93.3352 40.382 93.2764 40.382C92.8545 40.382 92.4669 39.9771 92.4668 39.589C92.4668 39.471 92.3236 39.3445 92.3232 39.2433C92.3232 39.1589 92.3822 39.1 92.5088 39.0578C92.9138 38.9143 93.4202 38.8545 93.8252 38.7111C93.8841 38.6941 93.9432 38.652 94.0273 38.4669C94.4154 37.5727 94.7191 36.6866 95.124 35.7502C95.2084 35.5645 95.2422 35.4625 95.2422 35.4035C95.2421 35.3616 95.2254 35.3449 95.2002 35.3449C95.1411 35.3449 95.0568 35.3871 94.8965 35.463C94.4747 35.6655 94.1288 35.8253 93.7998 35.8253L93.8076 35.8683C93.2173 35.8681 92.6947 35.2608 92.6943 34.9992C92.6943 34.7545 92.9393 34.4924 92.9814 34.3068C92.9984 34.2058 93.0655 34.1634 93.2002 34.1212C94.3308 33.8597 95.3099 33.4716 96.2549 33.0666C96.7191 32.864 98.28 32.4756 99.2334 32.2394C99.7988 32.096 100.87 31.9191 101.646 31.9191ZM139.91 44.255H139.894C139.896 44.255 139.897 44.2541 139.899 44.2541C139.903 44.2541 139.907 44.255 139.91 44.255ZM259.022 44.255H258.997C259 44.255 259.004 44.2541 259.007 44.2541C259.012 44.2541 259.017 44.255 259.022 44.255ZM35.9854 36.8976C35.8841 36.8977 35.7243 36.9569 35.5811 37.0412L35.5889 37.049C33.7497 38.0023 32.2651 39.0911 31.1514 40.4494C31.0332 40.635 29.6748 42.4157 29.6748 43.2003C29.6748 43.3437 29.6918 43.4875 29.793 43.4875C29.878 43.487 30.2153 43.3426 30.5859 42.9972C32.2903 41.3774 34.4927 39.9596 35.4883 38.0529C35.6317 37.8084 35.8335 37.5465 36.0527 37.3273C36.137 37.243 36.1708 37.1422 36.1709 37.0832C36.1709 36.9819 36.1119 36.8976 35.9854 36.8976ZM178.808 36.8976C178.706 36.8976 178.546 36.9568 178.402 37.0412L178.411 37.049C176.572 38.0024 175.086 39.091 173.973 40.4494C173.855 40.635 172.496 42.4157 172.496 43.2003C172.496 43.3437 172.513 43.4875 172.614 43.4875C172.699 43.4873 173.036 43.343 173.407 42.9972C175.112 41.3773 177.314 39.9597 178.31 38.0529C178.453 37.8083 178.656 37.5466 178.875 37.3273C178.959 37.2431 178.993 37.1422 178.993 37.0832C178.993 36.982 178.934 36.8978 178.808 36.8976ZM207.359 36.8976C207.258 36.8978 207.098 36.9569 206.955 37.0412L206.963 37.049C205.124 38.0023 203.639 39.0911 202.525 40.4494C202.407 40.635 201.049 42.4157 201.049 43.2003C201.049 43.3437 201.066 43.4875 201.167 43.4875C201.252 43.4872 201.589 43.3428 201.96 42.9972C203.664 41.3773 205.867 39.9597 206.862 38.0529C207.006 37.8083 207.208 37.5465 207.428 37.3273C207.512 37.2431 207.546 37.1422 207.546 37.0832C207.546 36.9819 207.486 36.8976 207.359 36.8976ZM274.159 36.8976C274.058 36.8977 273.898 36.9569 273.755 37.0412L273.763 37.049C271.923 38.0023 270.439 39.0911 269.325 40.4494C269.207 40.635 267.849 42.4157 267.849 43.2003C267.849 43.3437 267.866 43.4875 267.967 43.4875C268.052 43.4869 268.389 43.3425 268.76 42.9972C270.464 41.3774 272.667 39.9596 273.662 38.0529C273.806 37.8084 274.007 37.5465 274.227 37.3273C274.311 37.243 274.345 37.1422 274.345 37.0832C274.345 36.9819 274.286 36.8976 274.159 36.8976ZM13.2549 36.9904C13.1957 36.9904 13.0692 37.0073 12.9092 37.2345V37.2267C11.9136 38.5261 10.4199 40.8716 10.4199 42.4494C10.4199 42.5507 10.4371 42.8125 10.5215 43.0402C10.5806 43.2004 10.7406 43.4617 10.8418 43.4621C10.9599 43.4621 11.104 43.403 11.3486 43.0402C12.4454 41.4034 13.5584 39.7833 13.5586 37.8175C13.5586 37.5984 13.5588 37.3115 13.4746 37.2521C13.3734 37.1677 13.3313 37.108 13.3145 37.049C13.2976 37.0069 13.2717 36.9904 13.2549 36.9904ZM67.8037 36.9904C67.7447 36.9904 67.6182 37.0071 67.458 37.2345V37.2267C66.4624 38.5261 64.9688 40.8716 64.9688 42.4494C64.9688 42.5507 64.986 42.8125 65.0703 43.0402C65.1295 43.2005 65.2895 43.4621 65.3906 43.4621C65.5087 43.462 65.652 43.4026 65.8965 43.0402C66.9933 41.4034 68.1073 39.7833 68.1074 37.8175C68.1074 37.5986 68.1073 37.3119 68.0234 37.2521C67.9222 37.1677 67.8792 37.108 67.8623 37.049C67.8455 37.0072 67.8205 36.9905 67.8037 36.9904ZM291.338 36.9904C291.279 36.9904 291.152 37.0073 290.992 37.2345V37.2267C289.997 38.5261 288.503 40.8716 288.503 42.4494C288.503 42.5507 288.52 42.8125 288.604 43.0402C288.664 43.2004 288.824 43.4616 288.925 43.4621C289.043 43.4621 289.187 43.403 289.432 43.0402C290.528 41.4034 291.641 39.7833 291.642 37.8175C291.642 37.5983 291.642 37.3114 291.558 37.2521C291.456 37.1677 291.414 37.108 291.397 37.049C291.381 37.0069 291.355 36.9904 291.338 36.9904ZM224.901 37.6144C224.8 37.6144 224.639 37.6738 224.538 37.716C222.674 38.6863 221.096 40.4668 220.101 42.5929C219.958 42.8958 219.941 43.056 219.94 43.1154C219.94 43.1574 219.982 43.2166 219.999 43.2169C220.041 43.2169 220.117 43.1998 220.219 43.1154C221.898 41.7823 223.316 40.0357 224.632 38.3146C224.792 38.0703 225.02 37.9939 225.02 37.7072C225.019 37.665 224.977 37.6066 224.901 37.6066V37.6144ZM339.128 37.6144C339.027 37.6145 338.867 37.6738 338.766 37.716C336.901 38.6863 335.323 40.4667 334.327 42.5929C334.184 42.8957 334.167 43.056 334.167 43.1154C334.167 43.1572 334.208 43.2159 334.226 43.2169C334.268 43.2169 334.344 43.1998 334.445 43.1154C336.124 41.7823 337.542 40.0358 338.858 38.3146C339.019 38.0701 339.246 37.9939 339.246 37.7072C339.246 37.665 339.204 37.6066 339.128 37.6066V37.6144ZM144.72 36.9054C144.559 36.9054 144.458 36.9648 143.969 37.3107C143.606 37.5723 143.462 37.5724 143.142 37.8761C142.146 38.8043 140.527 40.6522 140.021 41.9093C139.936 42.1114 139.919 42.1957 139.919 42.2296C139.919 42.2465 139.919 42.2892 139.961 42.2892C140.02 42.2892 140.181 42.1873 140.324 42.0861H140.315C141.935 40.9723 143.598 39.0491 144.754 37.4123C144.897 37.2098 144.939 37.1247 144.939 37.091C144.939 36.9479 144.855 36.9054 144.72 36.9054ZM263.832 36.9054C263.672 36.9054 263.57 36.9648 263.081 37.3107C262.718 37.5723 262.575 37.5724 262.254 37.8761C261.258 38.8043 259.638 40.6522 259.132 41.9093C259.048 42.1112 259.031 42.1958 259.031 42.2296C259.031 42.2465 259.031 42.2892 259.073 42.2892C259.132 42.2892 259.293 42.1873 259.437 42.0861H259.428C261.048 40.9723 262.71 39.0491 263.866 37.4123C264.01 37.2098 264.052 37.1247 264.052 37.091C264.052 36.9479 263.967 36.9054 263.832 36.9054ZM106.7 36.34C106.599 36.3403 106.312 36.5014 105.849 36.965C104.996 37.8172 104.228 38.6859 103.604 40.0021C103.401 40.4237 103.385 40.5085 103.385 40.5675C103.385 40.6095 103.426 40.627 103.443 40.6271C103.486 40.6271 103.528 40.6265 103.789 40.382C104.743 39.5129 105.469 38.7194 106.06 37.9347C106.363 37.5302 106.262 37.5297 106.507 37.1418C106.751 36.7541 106.811 36.6358 106.811 36.4503C106.811 36.3492 106.768 36.3322 106.709 36.3322L106.7 36.34ZM192.315 36.34C192.214 36.3403 191.927 36.5015 191.464 36.965C190.612 37.8172 189.843 38.6859 189.219 40.0021C189.016 40.4237 189 40.5085 189 40.5675C189 40.6095 189.042 40.6269 189.059 40.6271C189.101 40.6271 189.144 40.6267 189.405 40.382C190.359 39.513 191.084 38.7193 191.675 37.9347C191.978 37.5301 191.877 37.5297 192.122 37.1418C192.366 36.7541 192.426 36.6358 192.426 36.4503C192.426 36.3491 192.383 36.3322 192.324 36.3322L192.315 36.34ZM323.393 36.34C323.291 36.34 323.004 36.5009 322.54 36.965C321.688 37.8171 320.92 38.6861 320.296 40.0021C320.094 40.4237 320.076 40.5085 320.076 40.5675C320.076 40.6097 320.119 40.6271 320.136 40.6271C320.178 40.6271 320.221 40.626 320.481 40.382C321.435 39.513 322.16 38.7194 322.751 37.9347C323.055 37.53 322.954 37.5298 323.198 37.1418C323.443 36.7539 323.502 36.6358 323.502 36.4503C323.502 36.3491 323.459 36.3322 323.4 36.3322L323.393 36.34ZM331.146 36.34C331.045 36.34 330.758 36.5009 330.294 36.965C329.442 37.8171 328.674 38.6861 328.05 40.0021C327.847 40.4237 327.83 40.5085 327.83 40.5675C327.83 40.6097 327.873 40.6271 327.89 40.6271C327.932 40.6271 327.974 40.6264 328.235 40.382C329.189 39.5129 329.914 38.7194 330.505 37.9347C330.809 37.5299 330.707 37.5298 330.952 37.1418C331.197 36.7539 331.256 36.6358 331.256 36.4503C331.256 36.3493 331.214 36.3323 331.155 36.3322L331.146 36.34ZM130.274 30.8898C130.637 30.8898 131.186 31.0085 131.447 31.2785C131.633 31.464 131.709 31.7419 131.709 31.9865C131.709 32.1468 131.667 32.3324 131.591 32.4084C131.371 32.6277 130.823 33.4208 130.174 33.4211C129.524 33.4211 129.144 33.0747 129.043 32.8722C128.925 32.6529 128.883 32.4081 128.883 32.1466C128.883 31.8262 128.967 31.4977 129.145 31.2785C129.364 31.017 129.794 30.8899 130.274 30.8898ZM257.926 30.8898C258.289 30.8898 258.837 31.0085 259.099 31.2785C259.284 31.464 259.36 31.742 259.36 31.9865C259.36 32.1466 259.318 32.3323 259.242 32.4084C259.023 32.6277 258.474 33.4211 257.824 33.4211C257.175 33.4209 256.796 33.0747 256.694 32.8722C256.576 32.6529 256.533 32.4081 256.533 32.1466C256.533 31.8263 256.618 31.4977 256.795 31.2785C257.014 31.0169 257.445 30.8898 257.926 30.8898ZM287.49 30.8898C287.853 30.8898 288.402 31.0085 288.663 31.2785C288.849 31.464 288.925 31.7419 288.925 31.9865C288.925 32.1468 288.883 32.3324 288.807 32.4084C288.587 32.6277 288.039 33.4209 287.39 33.4211C286.74 33.4211 286.36 33.0747 286.259 32.8722C286.141 32.6529 286.099 32.408 286.099 32.1466C286.099 31.8262 286.183 31.4977 286.36 31.2785C286.58 31.017 287.009 30.8899 287.49 30.8898Z" fill="#979796"/>
<path d="M396.862 23.3805H0.248672V25.042H396.862V23.3805Z" fill="#006600"/>
</svg>
