<svg width="562" height="400" viewBox="0 0 562 400" fill="none" xmlns="http://www.w3.org/2000/svg">
<path d="M260.893 382.037L399.893 243.036C423.63 219.299 423.63 180.807 399.893 156.963L334.884 91.9538L280.887 145.95L334.884 199.946L220.369 314.461C214.702 320.128 206.897 323.336 198.877 323.336L86.5008 323.336C80.9408 323.336 76.3431 318.845 76.3431 313.178L76.3431 86.6076C76.3431 81.0476 80.8339 76.4499 86.5009 76.4499L198.877 76.4499C206.897 76.4499 214.702 79.6576 220.369 85.3245L226.891 91.8469L280.887 37.8506L260.893 17.856C249.452 6.41516 234.055 -0.000258581 217.91 -0.000259993L60.8393 -0.000273724C27.2654 -0.000276659 -0.000115532 27.2652 -0.000118467 60.8391L-0.000142789 339.053C-0.000145724 372.627 27.2653 399.893 60.8392 399.893L217.91 399.893C234.055 399.893 249.559 393.477 260.893 382.037Z" fill="white"/>
<path d="M226.891 308.153L280.887 254.157L226.784 200.16L341.299 85.6455C346.966 79.9785 354.771 76.7708 362.791 76.7708L475.167 76.7709C480.727 76.7709 485.325 81.2616 485.325 86.9286L485.325 313.392C485.325 318.952 480.834 323.55 475.167 323.55L362.791 323.55C354.771 323.55 346.966 320.342 341.299 314.675L334.777 308.153L280.78 362.149L300.775 382.144C312.216 393.585 327.613 400 343.758 400L500.936 400C534.509 399.893 561.775 372.628 561.775 339.054L561.775 61.0531C561.775 27.4792 534.509 0.213772 500.936 0.213769L343.865 0.213755C327.72 0.213754 312.216 6.62917 300.882 18.07L161.882 157.07C138.145 180.807 138.145 219.3 161.882 243.143L226.891 308.153Z" fill="white"/>
<g style="mix-blend-mode:multiply" opacity="0.5">
<path d="M226.875 308.201L280.933 254.142L226.875 200.084L172.816 254.142L226.875 308.201Z" fill="#23B4F3"/>
</g>
<g style="mix-blend-mode:multiply" opacity="0.5">
<path d="M334.868 200.127L388.926 146.068L334.868 92.0097L280.809 146.068L334.868 200.127Z" fill="#23B4F3"/>
</g>
</svg>
